<svg width="12" height="11" viewBox="0 0 12 11" fill="none" xmlns="http://www.w3.org/2000/svg">
<path fill-rule="evenodd" clip-rule="evenodd" d="M12 9.82052C12 9.6892 11.9473 9.56325 11.8536 9.47039C11.7598 9.37752 11.6326 9.32536 11.5 9.32536H4.5C4.36739 9.32536 4.24021 9.37752 4.14645 9.47039C4.05268 9.56325 4 9.6892 4 9.82052C4 9.95185 4.05268 10.0778 4.14645 10.1707C4.24021 10.2635 4.36739 10.3157 4.5 10.3157H11.5C11.6326 10.3157 11.7598 10.2635 11.8536 10.1707C11.9473 10.0778 12 9.95185 12 9.82052ZM12 6.84952C12 6.7182 11.9473 6.59225 11.8536 6.49939C11.7598 6.40652 11.6326 6.35435 11.5 6.35435H0.5C0.367392 6.35435 0.240214 6.40652 0.146446 6.49939C0.0526781 6.59225 0 6.7182 0 6.84952C0 6.98085 0.0526781 7.1068 0.146446 7.19966C0.240214 7.29252 0.367392 7.34469 0.5 7.34469H11.5C11.6326 7.34469 11.7598 7.29252 11.8536 7.19966C11.9473 7.1068 12 6.98085 12 6.84952ZM12 3.87852C12 3.74719 11.9473 3.62125 11.8536 3.52839C11.7598 3.43552 11.6326 3.38335 11.5 3.38335H4.5C4.36739 3.38335 4.24021 3.43552 4.14645 3.52839C4.05268 3.62125 4 3.74719 4 3.87852C4 4.00985 4.05268 4.13579 4.14645 4.22866C4.24021 4.32152 4.36739 4.37369 4.5 4.37369H11.5C11.6326 4.37369 11.7598 4.32152 11.8536 4.22866C11.9473 4.13579 12 4.00985 12 3.87852ZM12 0.90752C12 0.776194 11.9473 0.650246 11.8536 0.557385C11.7598 0.464523 11.6326 0.412354 11.5 0.412354H0.5C0.367392 0.412354 0.240214 0.464523 0.146446 0.557385C0.0526781 0.650246 0 0.776194 0 0.90752C0 1.03885 0.0526781 1.16479 0.146446 1.25766C0.240214 1.35052 0.367392 1.40269 0.5 1.40269H11.5C11.6326 1.40269 11.7598 1.35052 11.8536 1.25766C11.9473 1.16479 12 1.03885 12 0.90752Z" fill="#454545"/>
</svg>
