<svg width="14" height="15" viewBox="0 0 14 15" fill="none" xmlns="http://www.w3.org/2000/svg">
<path d="M9.91667 11.0699C10.0653 11.0701 10.2084 11.127 10.3165 11.2291C10.4246 11.3312 10.4896 11.4707 10.4984 11.6191C10.5071 11.7675 10.4588 11.9137 10.3633 12.0277C10.2679 12.1417 10.1326 12.215 9.98492 12.2325L9.91667 12.2366H4.08333C3.93465 12.2364 3.79165 12.1795 3.68353 12.0775C3.57542 11.9754 3.51036 11.8359 3.50165 11.6875C3.49294 11.539 3.54123 11.3929 3.63665 11.2789C3.73208 11.1649 3.86744 11.0916 4.01508 11.074L4.08333 11.0699H9.91667ZM11.6667 8.15328C11.8214 8.15328 11.9697 8.21474 12.0791 8.32413C12.1885 8.43353 12.25 8.5819 12.25 8.73661C12.25 8.89132 12.1885 9.0397 12.0791 9.14909C11.9697 9.25849 11.8214 9.31995 11.6667 9.31995H2.33333C2.17862 9.31995 2.03025 9.25849 1.92085 9.14909C1.81146 9.0397 1.75 8.89132 1.75 8.73661C1.75 8.5819 1.81146 8.43353 1.92085 8.32413C2.03025 8.21474 2.17862 8.15328 2.33333 8.15328H11.6667ZM9.91667 5.23661C10.0653 5.23678 10.2084 5.29371 10.3165 5.39577C10.4246 5.49784 10.4896 5.63734 10.4984 5.78576C10.5071 5.93418 10.4588 6.08033 10.3633 6.19435C10.2679 6.30836 10.1326 6.38164 9.98492 6.3992L9.91667 6.40328H4.08333C3.93465 6.40311 3.79165 6.34618 3.68353 6.24412C3.57542 6.14205 3.51036 6.00256 3.50165 5.85413C3.49294 5.70571 3.54123 5.55956 3.63665 5.44554C3.73208 5.33153 3.86744 5.25826 4.01508 5.2407L4.08333 5.23661H9.91667ZM11.6667 2.31995C11.8153 2.32011 11.9584 2.37704 12.0665 2.47911C12.1746 2.58117 12.2396 2.72067 12.2483 2.86909C12.2571 3.01752 12.2088 3.16367 12.1133 3.27768C12.0179 3.3917 11.8826 3.46497 11.7349 3.48253L11.6667 3.48661H2.33333C2.18465 3.48645 2.04165 3.42952 1.93354 3.32745C1.82542 3.22539 1.76036 3.08589 1.75165 2.93747C1.74294 2.78904 1.79123 2.64289 1.88665 2.52888C1.98208 2.41486 2.11744 2.34159 2.26508 2.32403L2.33333 2.31995H11.6667Z" fill="#454545"/>
</svg>
