<svg width="12" height="11" viewBox="0 0 12 11" fill="none" xmlns="http://www.w3.org/2000/svg">
<path fill-rule="evenodd" clip-rule="evenodd" d="M0 10.0699C0 9.93734 0.0526785 9.81016 0.146447 9.71639C0.240215 9.62262 0.367392 9.56995 0.5 9.56995H7.5C7.63261 9.56995 7.75979 9.62262 7.85355 9.71639C7.94732 9.81016 8 9.93734 8 10.0699C8 10.2026 7.94732 10.3297 7.85355 10.4235C7.75979 10.5173 7.63261 10.5699 7.5 10.5699H0.5C0.367392 10.5699 0.240215 10.5173 0.146447 10.4235C0.0526785 10.3297 0 10.2026 0 10.0699ZM0 7.06995C0 6.93734 0.0526785 6.81016 0.146447 6.71639C0.240215 6.62262 0.367392 6.56995 0.5 6.56995H11.5C11.6326 6.56995 11.7598 6.62262 11.8536 6.71639C11.9473 6.81016 12 6.93734 12 7.06995C12 7.20255 11.9473 7.32973 11.8536 7.4235C11.7598 7.51727 11.6326 7.56995 11.5 7.56995H0.5C0.367392 7.56995 0.240215 7.51727 0.146447 7.4235C0.0526785 7.32973 0 7.20255 0 7.06995ZM0 4.06995C0 3.93734 0.0526785 3.81016 0.146447 3.71639C0.240215 3.62262 0.367392 3.56995 0.5 3.56995H7.5C7.63261 3.56995 7.75979 3.62262 7.85355 3.71639C7.94732 3.81016 8 3.93734 8 4.06995C8 4.20255 7.94732 4.32973 7.85355 4.4235C7.75979 4.51727 7.63261 4.56995 7.5 4.56995H0.5C0.367392 4.56995 0.240215 4.51727 0.146447 4.4235C0.0526785 4.32973 0 4.20255 0 4.06995ZM0 1.06995C0 0.937338 0.0526785 0.810161 0.146447 0.716393C0.240215 0.622625 0.367392 0.569946 0.5 0.569946H11.5C11.6326 0.569946 11.7598 0.622625 11.8536 0.716393C11.9473 0.810161 12 0.937338 12 1.06995C12 1.20255 11.9473 1.32973 11.8536 1.4235C11.7598 1.51727 11.6326 1.56995 11.5 1.56995H0.5C0.367392 1.56995 0.240215 1.51727 0.146447 1.4235C0.0526785 1.32973 0 1.20255 0 1.06995Z" fill="#454545"/>
</svg>
