<svg width="24" height="24" viewBox="0 0 24 24" fill="none" xmlns="http://www.w3.org/2000/svg">
<path d="M16.35 4H8.65C7.73906 4 7 4.71387 7 5.59375V19.4062C7 20.2861 7.73906 21 8.65 21H16.35C17.2609 21 18 20.2861 18 19.4062V5.59375C18 4.71387 17.2609 4 16.35 4ZM17 16.5C17 18.1484 17 19 15.5 19H9.5C8 19 8 18.5 8 16.5V5.99219C7.85 5 8.77312 5 9 5H12.5H16.5C16.7269 5 17 5 17 5.99219V16.5Z" fill="black"/>
<rect x="8.7002" y="8" width="1.5" height="1.5" fill="black"/>
<rect x="8.7002" y="11" width="1.5" height="1.5" fill="black"/>
<rect x="8.7002" y="14" width="1.5" height="1.5" fill="black"/>
<rect x="11.7002" y="8" width="1.5" height="1.5" fill="black"/>
<rect x="11.7002" y="11" width="1.5" height="1.5" fill="black"/>
<rect x="11.7002" y="14" width="1.5" height="1.5" fill="black"/>
<rect x="14.7002" y="8" width="1.5" height="1.5" fill="black"/>
<rect x="14.7002" y="11" width="1.5" height="1.5" fill="black"/>
<rect x="14.7002" y="14" width="1.5" height="1.5" fill="black"/>
<circle cx="12.5" cy="19.9004" r="0.5" fill="#D9D9D9"/>
</svg>
