<svg width="12" height="12" viewBox="0 0 12 12" fill="none" xmlns="http://www.w3.org/2000/svg">
<path d="M2 3.76923V1.69231C2 1.5087 2.07294 1.33261 2.20277 1.20277C2.33261 1.07294 2.5087 1 2.69231 1H4.76923C4.95284 1 5.12893 1.07294 5.25877 1.20277C5.3886 1.33261 5.46154 1.5087 5.46154 1.69231V3.76923C5.46154 3.95284 5.3886 4.12893 5.25877 4.25877C5.12893 4.3886 4.95284 4.46154 4.76923 4.46154H2.69231C2.5087 4.46154 2.33261 4.3886 2.20277 4.25877C2.07294 4.12893 2 3.95284 2 3.76923ZM7.53846 3.76923V1.69231C7.53846 1.5087 7.6114 1.33261 7.74123 1.20277C7.87107 1.07294 8.04716 1 8.23077 1H10.3077C10.4913 1 10.6674 1.07294 10.7972 1.20277C10.9271 1.33261 11 1.5087 11 1.69231V3.76923C11 3.95284 10.9271 4.12893 10.7972 4.25877C10.6674 4.3886 10.4913 4.46154 10.3077 4.46154H8.23077C8.04716 4.46154 7.87107 4.3886 7.74123 4.25877C7.6114 4.12893 7.53846 3.95284 7.53846 3.76923ZM7.53846 9.30769V7.23077C7.53846 7.04716 7.6114 6.87107 7.74123 6.74123C7.87107 6.6114 8.04716 6.53846 8.23077 6.53846H10.3077C10.4913 6.53846 10.6674 6.6114 10.7972 6.74123C10.9271 6.87107 11 7.04716 11 7.23077V9.30769C11 9.4913 10.9271 9.6674 10.7972 9.79723C10.6674 9.92706 10.4913 10 10.3077 10H8.23077C8.04716 10 7.87107 9.92706 7.74123 9.79723C7.6114 9.6674 7.53846 9.4913 7.53846 9.30769ZM2 9.30769V7.23077C2 7.04716 2.07294 6.87107 2.20277 6.74123C2.33261 6.6114 2.5087 6.53846 2.69231 6.53846H4.76923C4.95284 6.53846 5.12893 6.6114 5.25877 6.74123C5.3886 6.87107 5.46154 7.04716 5.46154 7.23077V9.30769C5.46154 9.4913 5.3886 9.6674 5.25877 9.79723C5.12893 9.92706 4.95284 10 4.76923 10H2.69231C2.5087 10 2.33261 9.92706 2.20277 9.79723C2.07294 9.6674 2 9.4913 2 9.30769Z" stroke="black" stroke-linecap="round" stroke-linejoin="round"/>
</svg>
