<svg width="12" height="12" viewBox="0 0 12 12" fill="none" xmlns="http://www.w3.org/2000/svg">
<path d="M1.2 4.8C1.2 4.32261 1.38964 3.86477 1.7272 3.52721C2.06477 3.18964 2.52261 3 3 3H9C9.47739 3 9.93522 3.18964 10.2728 3.52721C10.6104 3.86477 10.8 4.32261 10.8 4.8V6.6C10.8 7.07739 10.6104 7.53523 10.2728 7.87279C9.93522 8.21036 9.47739 8.4 9 8.4H3C2.52261 8.4 2.06477 8.21036 1.7272 7.87279C1.38964 7.53523 1.2 7.07739 1.2 6.6V4.8ZM3 3.6C2.68174 3.6 2.37651 3.72643 2.15147 3.95147C1.92643 4.17652 1.8 4.48174 1.8 4.8V6.6C1.8 6.91826 1.92643 7.22348 2.15147 7.44853C2.37651 7.67357 2.68174 7.8 3 7.8H9C9.31826 7.8 9.62348 7.67357 9.84853 7.44853C10.0736 7.22348 10.2 6.91826 10.2 6.6V4.8C10.2 4.48174 10.0736 4.17652 9.84853 3.95147C9.62348 3.72643 9.31826 3.6 9 3.6H3ZM5.4 5.7C5.4 5.62044 5.4316 5.54413 5.48786 5.48787C5.54413 5.43161 5.62043 5.4 5.7 5.4H8.4C8.47956 5.4 8.55587 5.43161 8.61213 5.48787C8.66839 5.54413 8.7 5.62044 8.7 5.7C8.7 5.77957 8.66839 5.85587 8.61213 5.91213C8.55587 5.96839 8.47956 6 8.4 6H5.7C5.62043 6 5.54413 5.96839 5.48786 5.91213C5.4316 5.85587 5.4 5.77957 5.4 5.7ZM4.8 5.7C4.8 5.93869 4.70518 6.16761 4.53639 6.3364C4.36761 6.50518 4.13869 6.6 3.9 6.6C3.6613 6.6 3.43238 6.50518 3.2636 6.3364C3.09482 6.16761 3 5.93869 3 5.7C3 5.46131 3.09482 5.23239 3.2636 5.0636C3.43238 4.89482 3.6613 4.8 3.9 4.8C4.13869 4.8 4.36761 4.89482 4.53639 5.0636C4.70518 5.23239 4.8 5.46131 4.8 5.7Z" fill="black"/>
</svg>
