<svg width="12" height="12" viewBox="0 0 12 12" fill="none" xmlns="http://www.w3.org/2000/svg">
<path d="M3.5998 1.80078C3.12241 1.80078 2.66458 1.99042 2.32701 2.32799C1.98945 2.66555 1.7998 3.12339 1.7998 3.60078V8.40078C1.7998 8.87817 1.98945 9.33601 2.32701 9.67357C2.66458 10.0111 3.12241 10.2008 3.5998 10.2008H8.3998C8.87719 10.2008 9.33503 10.0111 9.6726 9.67357C10.0102 9.33601 10.1998 8.87817 10.1998 8.40078V3.60078C10.1998 3.12339 10.0102 2.66555 9.6726 2.32799C9.33503 1.99042 8.87719 1.80078 8.3998 1.80078H3.5998ZM2.3998 3.60078C2.3998 3.28252 2.52623 2.9773 2.75128 2.75225C2.97632 2.52721 3.28154 2.40078 3.5998 2.40078H8.3998C8.71806 2.40078 9.02329 2.52721 9.24833 2.75225C9.47338 2.9773 9.5998 3.28252 9.5998 3.60078V8.40078C9.5998 8.71904 9.47338 9.02426 9.24833 9.24931C9.02329 9.47435 8.71806 9.60078 8.3998 9.60078H3.5998C3.28154 9.60078 2.97632 9.47435 2.75128 9.24931C2.52623 9.02426 2.3998 8.71904 2.3998 8.40078V3.60078ZM8.3122 4.71318C8.36854 4.65685 8.40018 4.58045 8.40018 4.50078C8.40018 4.42112 8.36854 4.34471 8.3122 4.28838C8.25587 4.23205 8.17947 4.2004 8.0998 4.2004C8.02014 4.2004 7.94374 4.23205 7.8874 4.28838L5.0998 7.07658L4.1122 6.08838C4.05587 6.03205 3.97947 6.0004 3.8998 6.0004C3.82014 6.0004 3.74374 6.03205 3.6874 6.08838C3.63107 6.14471 3.59943 6.22112 3.59943 6.30078C3.59943 6.38045 3.63107 6.45685 3.6874 6.51318L4.8874 7.71318C4.91527 7.74112 4.94838 7.76328 4.98482 7.77841C5.02127 7.79353 5.06034 7.80132 5.0998 7.80132C5.13926 7.80132 5.17834 7.79353 5.21478 7.77841C5.25123 7.76328 5.28434 7.74112 5.3122 7.71318L8.3122 4.71318Z" fill="black"/>
</svg>
