<svg width="12" height="12" viewBox="0 0 12 12" fill="none" xmlns="http://www.w3.org/2000/svg">
<path d="M1.79961 10.2008C1.48135 10.2008 1.17612 10.0744 0.951081 9.84931C0.726038 9.62427 0.599609 9.31904 0.599609 9.00078V3.00078C0.599609 2.68252 0.726038 2.3773 0.951081 2.15225C1.17612 1.92721 1.48135 1.80078 1.79961 1.80078H2.39961C2.71787 1.80078 3.02309 1.92721 3.24814 2.15225C3.47318 2.3773 3.59961 2.68252 3.59961 3.00078V9.00078C3.59961 9.31904 3.47318 9.62427 3.24814 9.84931C3.02309 10.0744 2.71787 10.2008 2.39961 10.2008H1.79961ZM1.19961 9.00078C1.19961 9.15991 1.26282 9.31252 1.37535 9.42504C1.48787 9.53757 1.64048 9.60078 1.79961 9.60078H2.39961C2.55874 9.60078 2.71135 9.53757 2.82387 9.42504C2.93639 9.31252 2.99961 9.15991 2.99961 9.00078V3.00078C2.99961 2.84165 2.93639 2.68904 2.82387 2.57652C2.71135 2.464 2.55874 2.40078 2.39961 2.40078H1.79961C1.64048 2.40078 1.48787 2.464 1.37535 2.57652C1.26282 2.68904 1.19961 2.84165 1.19961 3.00078V9.00078ZM5.39961 10.2008C5.08135 10.2008 4.77612 10.0744 4.55108 9.84931C4.32604 9.62427 4.19961 9.31904 4.19961 9.00078V3.00078C4.19961 2.68252 4.32604 2.3773 4.55108 2.15225C4.77612 1.92721 5.08135 1.80078 5.39961 1.80078H5.99961C6.31787 1.80078 6.62309 1.92721 6.84814 2.15225C7.07318 2.3773 7.19961 2.68252 7.19961 3.00078V9.00078C7.19961 9.31904 7.07318 9.62427 6.84814 9.84931C6.62309 10.0744 6.31787 10.2008 5.99961 10.2008H5.39961ZM4.79961 9.00078C4.79961 9.15991 4.86282 9.31252 4.97535 9.42504C5.08787 9.53757 5.24048 9.60078 5.39961 9.60078H5.99961C6.15874 9.60078 6.31135 9.53757 6.42387 9.42504C6.53639 9.31252 6.59961 9.15991 6.59961 9.00078V3.00078C6.59961 2.84165 6.53639 2.68904 6.42387 2.57652C6.31135 2.464 6.15874 2.40078 5.99961 2.40078H5.39961C5.24048 2.40078 5.08787 2.464 4.97535 2.57652C4.86282 2.68904 4.79961 2.84165 4.79961 3.00078V9.00078ZM8.99961 10.2008C8.68135 10.2008 8.37612 10.0744 8.15108 9.84931C7.92604 9.62427 7.79961 9.31904 7.79961 9.00078V3.00078C7.79961 2.68252 7.92604 2.3773 8.15108 2.15225C8.37612 1.92721 8.68135 1.80078 8.99961 1.80078H9.59961C9.91787 1.80078 10.2231 1.92721 10.4481 2.15225C10.6732 2.3773 10.7996 2.68252 10.7996 3.00078V9.00078C10.7996 9.31904 10.6732 9.62427 10.4481 9.84931C10.2231 10.0744 9.91787 10.2008 9.59961 10.2008H8.99961ZM8.39961 9.00078C8.39961 9.15991 8.46282 9.31252 8.57535 9.42504C8.68787 9.53757 8.84048 9.60078 8.99961 9.60078H9.59961C9.75874 9.60078 9.91135 9.53757 10.0239 9.42504C10.1364 9.31252 10.1996 9.15991 10.1996 9.00078V3.00078C10.1996 2.84165 10.1364 2.68904 10.0239 2.57652C9.91135 2.464 9.75874 2.40078 9.59961 2.40078H8.99961C8.84048 2.40078 8.68787 2.464 8.57535 2.57652C8.46282 2.68904 8.39961 2.84165 8.39961 3.00078V9.00078Z" fill="black"/>
</svg>
