<svg width="24" height="24" viewBox="0 0 24 24" fill="none" xmlns="http://www.w3.org/2000/svg">
<path d="M15 18.25C15 18.4489 14.921 18.6397 14.7803 18.7803C14.6397 18.921 14.4489 19 14.25 19C14.0511 19 13.8603 18.921 13.7197 18.7803C13.579 18.6397 13.5 18.4489 13.5 18.25C13.5 18.0511 13.579 17.8603 13.7197 17.7197C13.8603 17.579 14.0511 17.5 14.25 17.5C14.4489 17.5 14.6397 17.579 14.7803 17.7197C14.921 17.8603 15 18.0511 15 18.25ZM16.75 18.5C16.9489 18.5 17.1397 18.421 17.2803 18.2803C17.421 18.1397 17.5 17.9489 17.5 17.75C17.5 17.5511 17.421 17.3603 17.2803 17.2197C17.1397 17.079 16.9489 17 16.75 17C16.5511 17 16.3603 17.079 16.2197 17.2197C16.079 17.3603 16 17.5511 16 17.75C16 17.9489 16.079 18.1397 16.2197 18.2803C16.3603 18.421 16.5511 18.5 16.75 18.5Z" fill="black"/>
<path fill-rule="evenodd" clip-rule="evenodd" d="M12 3C15.86 3 19.04 3.875 19.454 5H19.5V19C19.5 20.105 16.142 21 12 21C7.858 21 4.5 20.105 4.5 19V5H4.546C4.96 3.875 8.1395 3 12 3ZM12 16.5C9.2215 16.5 6.796 16.0465 5.5 15.3735V18.8465C5.5275 18.8685 5.567 18.8975 5.6225 18.9325C5.881 19.0955 6.3215 19.279 6.9545 19.448C8.206 19.7815 9.99 20 12 20C14.01 20 15.794 19.7815 17.0455 19.448C17.6785 19.279 18.119 19.0955 18.3775 18.933C18.4325 18.8975 18.4725 18.8685 18.5 18.8465V15.3735C17.204 16.0465 14.7785 16.5 12 16.5ZM12 12C14.7785 12 17.204 11.5465 18.5 10.8735V14.25H18.4115C18.3857 14.2708 18.3591 14.2909 18.332 14.31C18.077 14.491 17.6425 14.695 17.016 14.883C15.775 15.2555 14.002 15.5 12 15.5C9.998 15.5 8.225 15.255 6.984 14.883C6.3575 14.695 5.923 14.491 5.668 14.31C5.6407 14.2909 5.61401 14.2709 5.588 14.25H5.5V10.8735C6.796 11.5465 9.2215 12 12 12ZM12 7.5C14.7785 7.5 17.204 7.047 18.5 6.373V9.75H18.4115C18.3857 9.77085 18.3591 9.79086 18.332 9.81C18.077 9.991 17.6425 10.195 17.016 10.383C15.775 10.7555 14.002 11 12 11C9.998 11 8.225 10.755 6.984 10.383C6.3575 10.195 5.923 9.991 5.668 9.81C5.6407 9.79087 5.61401 9.77085 5.588 9.75H5.5V6.373C6.796 7.0475 9.2215 7.5 12 7.5ZM18.375 5.2215L18.4115 5.25C18.3857 5.27087 18.3592 5.29088 18.332 5.31C18.077 5.491 17.6425 5.695 17.016 5.883C15.775 6.2555 14.002 6.5 12 6.5C9.998 6.5 8.225 6.255 6.984 5.883C6.3575 5.695 5.923 5.491 5.668 5.31C5.64085 5.29088 5.61434 5.27087 5.5885 5.25C5.6142 5.22896 5.64072 5.20894 5.668 5.19C5.72409 5.15009 5.78216 5.11304 5.842 5.079C5.9165 5.0365 5.9995 4.993 6.091 4.95C6.2745 4.863 6.4955 4.775 6.7545 4.689C6.9045 4.639 7.0675 4.5905 7.2415 4.5435C7.66068 4.43204 8.08501 4.34093 8.513 4.2705C9.53 4.1005 10.719 4 12 4C13.8635 4 15.5325 4.212 16.7585 4.5435C16.8475 4.5675 16.9335 4.592 17.016 4.617C17.506 4.764 17.8875 4.9235 18.158 5.079C18.2175 5.11365 18.2755 5.15068 18.332 5.19L18.375 5.2215ZM18.555 18.7935C18.555 18.7935 18.5535 18.797 18.547 18.804C18.5495 18.8002 18.5518 18.7967 18.555 18.7935ZM5.4455 18.7935C5.4455 18.7935 5.449 18.797 5.4535 18.804C5.447 18.797 5.4455 18.7935 5.4455 18.7935Z" fill="black"/>
</svg>
