<svg width="177" height="164" viewBox="0 0 177 164" fill="none" xmlns="http://www.w3.org/2000/svg">
<path d="M0 14.7085C0 6.58523 6.5764 0 14.6888 0H53.9811C59.6253 0 64.7703 3.23842 67.2175 8.33136L67.3386 8.58344C69.7858 13.6764 74.9308 16.9148 80.575 16.9148H162.311C170.424 16.9148 177 23.5 177 31.6233V100.753C177 108.877 170.424 115.462 162.311 115.462H14.6888C6.5764 115.462 0 108.877 0 100.753V14.7085Z" fill="#4E4FD4"/>
<path d="M51.4746 47.8027H150.066C156.961 47.8027 162.551 53.4001 162.551 60.3049H51.4746V47.8027Z" fill="#FEFDFF"/>
<path d="M0 56.6278C0 48.5045 6.5764 41.9193 14.6888 41.9193H53.7604C59.5183 41.9193 64.7451 45.2879 67.13 50.5357L67.4261 51.1873C69.811 56.4351 75.0379 59.8037 80.7957 59.8037H162.311C170.424 59.8037 177 66.3889 177 74.5122V149.291C177 157.415 170.424 164 162.311 164H14.6888C6.5764 164 0 157.415 0 149.291V56.6278Z" fill="url(#paint0_linear_1448_3857)"/>
<defs>
<linearGradient id="paint0_linear_1448_3857" x1="103.556" y1="156.646" x2="103.556" y2="57.3632" gradientUnits="userSpaceOnUse">
<stop stop-color="#6366F1"/>
<stop offset="1" stop-color="#817AF8"/>
</linearGradient>
</defs>
</svg>
