<?xml version="1.0" encoding="UTF-8" standalone="no"?>
<svg
   height="48.002659"
   width="47.999546"
   version="1.1"
   id="svg42"
   sodipodi:docname="gateway-xor.svg"
   inkscape:version="1.2.1 (9c6d41e4, 2022-07-14)"
   xmlns:inkscape="http://www.inkscape.org/namespaces/inkscape"
   xmlns:sodipodi="http://sodipodi.sourceforge.net/DTD/sodipodi-0.dtd"
   xmlns="http://www.w3.org/2000/svg"
   xmlns:svg="http://www.w3.org/2000/svg">
  <defs
     id="defs46" />
  <sodipodi:namedview
     id="namedview44"
     pagecolor="#ffffff"
     bordercolor="#666666"
     borderopacity="1.0"
     inkscape:showpageshadow="2"
     inkscape:pageopacity="0.0"
     inkscape:pagecheckerboard="0"
     inkscape:deskcolor="#d1d1d1"
     showgrid="false"
     inkscape:zoom="0.11523438"
     inkscape:cx="932.88136"
     inkscape:cy="928.54237"
     inkscape:window-width="1309"
     inkscape:window-height="456"
     inkscape:window-x="0"
     inkscape:window-y="25"
     inkscape:window-maximized="0"
     inkscape:current-layer="svg42" />
  <path
     d="M 24.000009,7.7516067e-7 C 23.498389,-4.3822484e-4 22.996789,0.18558778 22.624669,0.55944578 L 0.55650899,22.627804 c -0.744232,0.7442 -0.740785,2.00653 0.003,2.75073 L 22.624219,47.443094 c 0.74423,0.74445 2.0065,0.74772 2.75073,0 l 22.06821,-22.06805 c 0.74423,-0.74421 0.74079,-2.00659 -0.004,-2.75079 L 25.375349,0.55944578 C 25.003229,0.18734578 24.501629,4.4077516e-4 24.000009,7.7516067e-7 Z M 23.998009,3.2720538 44.730729,24.004924 23.998009,44.737544 3.265289,24.004924 Z m -7.74295,11.5360002 c -3.5e-4,2e-5 -0.24951,0.0477 -0.2497,0.0477 -2.6e-4,0 -0.21144,0.14313 -0.21158,0.14313 l -0.7978,0.79795 c -2.6e-4,0 -0.14564,0.21353 -0.14571,0.21604 0,2.5e-4 -0.0451,0.2461 -0.0451,0.2461 -2e-5,2.6e-4 0.0485,0.24363 0.0486,0.24363 0,2.5e-4 0.13856,0.21604 0.13872,0.21604 l 7.28698,7.28677 -7.28348,7.28354 v -0.002 c 0,2.5e-4 -0.14564,0.21599 -0.14571,0.21599 0,2.5e-4 -0.0451,0.24615 -0.0451,0.24615 0,5.1e-4 0.0485,0.24363 0.0486,0.24363 0,0 0.13859,0.21347 0.13872,0.21599 l 0.79785,0.79769 c 2.6e-4,2.5e-4 0.21833,0.14318 0.21853,0.14318 2.5e-4,0 0.24259,0.0477 0.24281,0.0477 2.6e-4,0 0.24606,-0.0452 0.24626,-0.0452 2.6e-4,0 0.21493,-0.14572 0.21507,-0.14572 l 7.28359,-7.28373 7.28515,7.28525 c 2.6e-4,2.5e-4 0.21837,0.14318 0.21853,0.14318 2.6e-4,0 0.24261,0.0477 0.24281,0.0477 2.6e-4,0 0.24611,-0.0452 0.24631,-0.0452 2.6e-4,0 0.21482,-0.14567 0.21497,-0.14567 l 0.79785,-0.79769 c 2.6e-4,-2.5e-4 0.14214,-0.21097 0.14227,-0.21097 0,-2.6e-4 0.0486,-0.24867 0.0486,-0.25118 0,-2.5e-4 -0.0485,-0.24362 -0.0486,-0.24362 0,0 -0.14205,-0.21853 -0.14222,-0.21853 l -7.28434,-7.28449 7.28439,-7.2843 c 2.6e-4,0 0.14209,-0.21097 0.14222,-0.21097 0,-2.5e-4 0.0486,-0.24864 0.0486,-0.24864 0,-5e-4 -0.0485,-0.24362 -0.0486,-0.24362 0,-2.5e-4 -0.14552,-0.21604 -0.14567,-0.21604 l -0.79784,-0.79795 c -2.6e-4,0 -0.21141,-0.14313 -0.21158,-0.14313 -2.6e-4,0 -0.24259,-0.0478 -0.24281,-0.0478 -2.6e-4,0 -0.24954,0.0478 -0.24971,0.0478 -2.6e-4,0 -0.21146,0.14313 -0.21158,0.14313 l -7.28455,7.28455 -7.28779,-7.28805 v -0.002 c -2.6e-4,0 -0.21489,-0.13811 -0.21507,-0.13811 -2.6e-4,0 -0.24247,-0.0477 -0.24277,-0.0477 z"
     id="path40"
     style="stroke-width:0.0259594" />
</svg>
