<svg width="16" height="18" viewBox="0 0 16 18" fill="none" xmlns="http://www.w3.org/2000/svg">
<path d="M11.1588 9.40784V15.7448C11.1588 16.2971 10.7111 16.7448 10.1588 16.7448H2C1.44771 16.7448 1 16.2971 1 15.7448V7.58594C1 7.03365 1.44772 6.58594 2 6.58594H6.37821" stroke="white" stroke-width="1.5"/>
<path fill-rule="evenodd" clip-rule="evenodd" d="M11.5854 2.18401C11.661 2.16995 11.7397 2.17071 11.817 2.18623C11.8943 2.20175 11.9686 2.23174 12.0358 2.27447C12.103 2.3172 12.1617 2.37184 12.2086 2.43525C12.2554 2.49867 12.2895 2.56961 12.3088 2.64402L13.5619 7.4431C13.6011 7.59329 13.5781 7.74853 13.4979 7.87466C13.4177 8.00079 13.2869 8.08749 13.1342 8.11568C12.9816 8.14387 12.8196 8.11124 12.684 8.02497C12.5483 7.9387 12.45 7.80586 12.4108 7.65567L11.515 4.22177L6.20345 12.5748C6.12335 12.7008 5.9927 12.7874 5.84025 12.8155C5.6878 12.8437 5.52603 12.8111 5.39053 12.7249C5.25504 12.6388 5.15691 12.5061 5.11775 12.3561C5.07858 12.2061 5.10158 12.051 5.18168 11.9251L10.4933 3.57204L7.0036 4.21729C6.92802 4.23125 6.84935 4.23042 6.77209 4.21485C6.69483 4.19929 6.62049 4.16929 6.55332 4.12658C6.41765 4.04031 6.3194 3.90747 6.28019 3.75728C6.26077 3.68291 6.25643 3.60652 6.26741 3.53248C6.27839 3.45843 6.30449 3.38817 6.3442 3.32572C6.42441 3.19959 6.55522 3.11289 6.70787 3.0847L11.5854 2.18401Z" fill="white"/>
</svg>
