<svg width="12" height="13" viewBox="0 0 12 13" fill="none" xmlns="http://www.w3.org/2000/svg">
<path d="M9.5 2.40039H2.5C1.94772 2.40039 1.5 2.84811 1.5 3.40039V10.4004C1.5 10.9527 1.94772 11.4004 2.5 11.4004H9.5C10.0523 11.4004 10.5 10.9527 10.5 10.4004V3.40039C10.5 2.84811 10.0523 2.40039 9.5 2.40039Z" stroke="black" stroke-linecap="round" stroke-linejoin="round"/>
<path d="M4.5 6.40039C5.05228 6.40039 5.5 5.95268 5.5 5.40039C5.5 4.84811 5.05228 4.40039 4.5 4.40039C3.94772 4.40039 3.5 4.84811 3.5 5.40039C3.5 5.95268 3.94772 6.40039 4.5 6.40039Z" stroke="black" stroke-linecap="round" stroke-linejoin="round"/>
<path d="M10.5 8.40039L8.957 6.85739C8.76947 6.66992 8.51516 6.56461 8.25 6.56461C7.98484 6.56461 7.73053 6.66992 7.543 6.85739L3 11.4004" stroke="black" stroke-linecap="round" stroke-linejoin="round"/>
</svg>
