<svg xmlns="http://www.w3.org/2000/svg" xmlns:xlink="http://www.w3.org/1999/xlink" width="500" zoomAndPan="magnify" viewBox="0 0 375 374.999991" height="500" preserveAspectRatio="xMidYMid meet" version="1.0"><path fill="#ffffff" d="M 367.820312 250.773438 C 363.890625 250.773438 360.699219 247.582031 360.699219 243.648438 L 360.699219 25.042969 L 239.792969 146.011719 C 237.007812 148.789062 232.5 148.789062 229.71875 146.011719 C 226.9375 143.226562 226.9375 138.714844 229.71875 135.929688 L 362.785156 2.800781 C 364.820312 0.757812 367.886719 0.148438 370.550781 1.253906 C 373.207031 2.359375 374.945312 4.957031 374.945312 7.835938 L 374.945312 243.648438 C 374.945312 247.582031 371.757812 250.773438 367.820312 250.773438 Z M 7.964844 375 C 4.03125 375 0.84375 371.8125 0.84375 367.875 L 0.84375 119.421875 C 0.84375 116.539062 2.578125 113.9375 5.238281 112.835938 C 7.902344 111.734375 10.964844 112.34375 13.003906 114.378906 L 137.167969 238.609375 C 139.949219 241.390625 139.949219 245.902344 137.167969 248.683594 C 134.386719 251.46875 129.875 251.46875 127.09375 248.683594 L 15.089844 136.625 L 15.089844 367.875 C 15.089844 371.8125 11.898438 375 7.964844 375 Z M 367.820312 375 C 366 375 364.175781 374.304688 362.785156 372.914062 L 2.929688 12.875 C 0.148438 10.09375 0.148438 5.582031 2.929688 2.800781 C 5.710938 0.015625 10.21875 0.015625 13.003906 2.800781 L 372.859375 362.835938 C 375.640625 365.617188 375.640625 370.128906 372.859375 372.914062 C 371.464844 374.304688 369.644531 375 367.820312 375 " fill-opacity="1" fill-rule="nonzero"/></svg>