<svg width="24" height="24" viewBox="0 0 24 24" fill="none" xmlns="http://www.w3.org/2000/svg">
<path d="M5.615 22C5.16833 22 4.78733 21.8427 4.472 21.528C4.15733 21.2133 4 20.8323 4 20.385V3.615C4 3.16833 4.15733 2.78733 4.472 2.472C4.78667 2.15733 5.16767 2 5.615 2H18.385C18.8317 2 19.2127 2.15733 19.528 2.472C19.8427 2.78667 20 3.16767 20 3.615V20.385C20 20.8317 19.8427 21.2127 19.528 21.528C19.2133 21.8427 18.8323 22 18.385 22H5.615ZM5 17.538V20.385C5 20.5643 5.05767 20.7117 5.173 20.827C5.28833 20.9423 5.43567 21 5.615 21H18.385C18.5643 21 18.7117 20.9423 18.827 20.827C18.9423 20.7117 19 20.5643 19 20.385V17.538H5ZM10.23 19.654H13.77V18.884H10.23V19.654ZM5 16.538H19V5.5H5V16.538ZM5 4.5H19V3.615C19 3.43567 18.9423 3.28833 18.827 3.173C18.7117 3.05767 18.5643 3 18.385 3H5.615C5.43567 3 5.28833 3.05767 5.173 3.173C5.05767 3.28833 5 3.43567 5 3.615V4.5Z" fill="#454545"/>
</svg>
