<svg width="24" height="24" viewBox="0 0 24 24" fill="none" xmlns="http://www.w3.org/2000/svg">
<path d="M8 5H6V5C4.89543 5 4 5.89543 4 7V8" stroke="black"/>
<path d="M16 5H18V5C19.1046 5 20 5.89543 20 7V8" stroke="black"/>
<path d="M8 19H6V19C4.89543 19 4 18.1046 4 17V16" stroke="black"/>
<path d="M16 19H18V19C19.1046 19 20 18.1046 20 17V16" stroke="black"/>
<path d="M7.16296 10.0279L4.31111 8.57444C4.21581 8.52561 4.10879 8.5 4 8.5C3.89121 8.5 3.78419 8.52561 3.68889 8.57444L0.837037 10.0279C0.734992 10.0799 0.649853 10.1564 0.590552 10.2496C0.531251 10.3428 0.499973 10.4491 0.5 10.5574V13.4425C0.499973 13.5508 0.531251 13.6571 0.590552 13.7503C0.649853 13.8435 0.734992 13.9201 0.837037 13.972L3.68889 15.4255C3.78417 15.4744 3.8912 15.5 4 15.5C4.1088 15.5 4.21583 15.4744 4.31111 15.4255L7.16296 13.972C7.26501 13.9201 7.35015 13.8435 7.40945 13.7503C7.46875 13.6571 7.50003 13.5508 7.5 13.4425V10.5574C7.50003 10.4491 7.46875 10.3428 7.40945 10.2496C7.35015 10.1564 7.26501 10.0799 7.16296 10.0279ZM4 9.24126L6.33333 10.431L4 11.6198L1.66667 10.431L4 9.24126ZM1.27778 11.0583L3.61111 12.2471V14.5604L1.27778 13.371V11.0583ZM4.38889 14.5604V12.2471L6.72222 11.0583V13.371L4.38889 14.5604Z" fill="black"/>
<path d="M23.163 10.0279L20.3111 8.57444C20.2158 8.52561 20.1088 8.5 20 8.5C19.8912 8.5 19.7842 8.52561 19.6889 8.57444L16.837 10.0279C16.735 10.0799 16.6499 10.1564 16.5906 10.2496C16.5313 10.3428 16.5 10.4491 16.5 10.5574V13.4425C16.5 13.5508 16.5313 13.6571 16.5906 13.7503C16.6499 13.8435 16.735 13.9201 16.837 13.972L19.6889 15.4255C19.7842 15.4744 19.8912 15.5 20 15.5C20.1088 15.5 20.2158 15.4744 20.3111 15.4255L23.163 13.972C23.265 13.9201 23.3501 13.8435 23.4094 13.7503C23.4687 13.6571 23.5 13.5508 23.5 13.4425V10.5574C23.5 10.4491 23.4687 10.3428 23.4094 10.2496C23.3501 10.1564 23.265 10.0799 23.163 10.0279ZM20 9.24126L22.3333 10.431L20 11.6198L17.6667 10.431L20 9.24126ZM17.2778 11.0583L19.6111 12.2471V14.5604L17.2778 13.371V11.0583ZM20.3889 14.5604V12.2471L22.7222 11.0583V13.371L20.3889 14.5604Z" fill="black"/>
<path d="M15.163 2.02787L12.3111 0.574445C12.2158 0.525609 12.1088 0.5 12 0.5C11.8912 0.5 11.7842 0.525609 11.6889 0.574445L8.83704 2.02787C8.73499 2.07985 8.64985 2.15645 8.59055 2.24962C8.53125 2.34279 8.49997 2.4491 8.5 2.5574V5.44252C8.49997 5.55082 8.53125 5.65713 8.59055 5.7503C8.64985 5.84347 8.73499 5.92006 8.83704 5.97205L11.6889 7.42547C11.7842 7.47436 11.8912 7.5 12 7.5C12.1088 7.5 12.2158 7.47436 12.3111 7.42547L15.163 5.97205C15.265 5.92006 15.3501 5.84347 15.4094 5.7503C15.4687 5.65713 15.5 5.55082 15.5 5.44252V2.5574C15.5 2.4491 15.4687 2.34279 15.4094 2.24962C15.3501 2.15645 15.265 2.07985 15.163 2.02787ZM12 1.24126L14.3333 2.43097L12 3.61978L9.66667 2.43097L12 1.24126ZM9.27778 3.05827L11.6111 4.24707V6.56042L9.27778 5.37101V3.05827ZM12.3889 6.56042V4.24707L14.7222 3.05827V5.37101L12.3889 6.56042Z" fill="black"/>
<path d="M15.163 9.52787L12.3111 8.07444C12.2158 8.02561 12.1088 8 12 8C11.8912 8 11.7842 8.02561 11.6889 8.07444L8.83704 9.52787C8.73499 9.57985 8.64985 9.65645 8.59055 9.74962C8.53125 9.84279 8.49997 9.9491 8.5 10.0574V12.9425C8.49997 13.0508 8.53125 13.1571 8.59055 13.2503C8.64985 13.3435 8.73499 13.4201 8.83704 13.472L11.6889 14.9255C11.7842 14.9744 11.8912 15 12 15C12.1088 15 12.2158 14.9744 12.3111 14.9255L15.163 13.472C15.265 13.4201 15.3501 13.3435 15.4094 13.2503C15.4687 13.1571 15.5 13.0508 15.5 12.9425V10.0574C15.5 9.9491 15.4687 9.84279 15.4094 9.74962C15.3501 9.65645 15.265 9.57985 15.163 9.52787ZM12 8.74126L14.3333 9.93097L12 11.1198L9.66667 9.93097L12 8.74126ZM9.27778 10.5583L11.6111 11.7471V14.0604L9.27778 12.871V10.5583ZM12.3889 14.0604V11.7471L14.7222 10.5583V12.871L12.3889 14.0604Z" fill="black"/>
<path d="M15.163 17.0279L12.3111 15.5744C12.2158 15.5256 12.1088 15.5 12 15.5C11.8912 15.5 11.7842 15.5256 11.6889 15.5744L8.83704 17.0279C8.73499 17.0799 8.64985 17.1564 8.59055 17.2496C8.53125 17.3428 8.49997 17.4491 8.5 17.5574V20.4425C8.49997 20.5508 8.53125 20.6571 8.59055 20.7503C8.64985 20.8435 8.73499 20.9201 8.83704 20.972L11.6889 22.4255C11.7842 22.4744 11.8912 22.5 12 22.5C12.1088 22.5 12.2158 22.4744 12.3111 22.4255L15.163 20.972C15.265 20.9201 15.3501 20.8435 15.4094 20.7503C15.4687 20.6571 15.5 20.5508 15.5 20.4425V17.5574C15.5 17.4491 15.4687 17.3428 15.4094 17.2496C15.3501 17.1564 15.265 17.0799 15.163 17.0279ZM12 16.2413L14.3333 17.431L12 18.6198L9.66667 17.431L12 16.2413ZM9.27778 18.0583L11.6111 19.2471V21.5604L9.27778 20.371V18.0583ZM12.3889 21.5604V19.2471L14.7222 18.0583V20.371L12.3889 21.5604Z" fill="black"/>
</svg>
