<svg width="24" height="24" viewBox="0 0 24 24" fill="none" xmlns="http://www.w3.org/2000/svg">
<path d="M18.0024 8V6C18.0024 5.46957 17.7917 4.96086 17.4166 4.58579C17.0414 4.21071 16.5327 4 16.0021 4H4.00031C3.46979 4 2.96101 4.21071 2.58588 4.58579C2.21075 4.96086 2 5.46957 2 6V13C2 13.5304 2.21075 14.0391 2.58588 14.4142C2.96101 14.7893 3.46979 15 4.00031 15H12.0015" stroke="#454545" stroke-linecap="round" stroke-linejoin="round"/>
<path d="M10.002 18.9991V15.0391V18.1891" stroke="#454545" stroke-linecap="round" stroke-linejoin="round"/>
<path d="M7.00098 19H12.0017" stroke="#454545" stroke-linecap="round" stroke-linejoin="round"/>
<path d="M20.0035 12H18.0032C16.8985 12 16.0029 12.8954 16.0029 14V20C16.0029 21.1046 16.8985 22 18.0032 22H20.0035C21.1083 22 22.0038 21.1046 22.0038 20V14C22.0038 12.8954 21.1083 12 20.0035 12Z" stroke="#454545" stroke-linecap="round" stroke-linejoin="round"/>
</svg>
