<svg width="24" height="24" viewBox="0 0 24 24" fill="none" xmlns="http://www.w3.org/2000/svg">
<path fill-rule="evenodd" clip-rule="evenodd" d="M6.5 2C6.5 1.72386 6.72386 1.5 7 1.5H16.5C16.6326 1.5 16.7598 1.55268 16.8536 1.64645L21.3536 6.14645C21.4473 6.24021 21.5 6.36739 21.5 6.5V19C21.5 19.2761 21.2761 19.5 21 19.5C20.7239 19.5 20.5 19.2761 20.5 19V6.70711L16.2929 2.5H7C6.72386 2.5 6.5 2.27614 6.5 2ZM6.5 10C6.5 9.72386 6.72386 9.5 7 9.5H10C10.2761 9.5 10.5 9.72386 10.5 10C10.5 10.2761 10.2761 10.5 10 10.5H7C6.72386 10.5 6.5 10.2761 6.5 10ZM6.5 14C6.5 13.7239 6.72386 13.5 7 13.5H8C8.27614 13.5 8.5 13.7239 8.5 14C8.5 14.2761 8.27614 14.5 8 14.5H7C6.72386 14.5 6.5 14.2761 6.5 14ZM6.5 18C6.5 17.7239 6.72386 17.5 7 17.5H14C14.2761 17.5 14.5 17.7239 14.5 18C14.5 18.2761 14.2761 18.5 14 18.5H7C6.72386 18.5 6.5 18.2761 6.5 18ZM4.5 5.5C4.23478 5.5 3.98043 5.60536 3.79289 5.79289C3.60536 5.98043 3.5 6.23478 3.5 6.5V20.5C3.5 20.7652 3.60536 21.0196 3.79289 21.2071C3.98043 21.3946 4.23478 21.5 4.5 21.5H16.5C16.7652 21.5 17.0196 21.3946 17.2071 21.2071C17.3946 21.0196 17.5 20.7652 17.5 20.5V9.5H14.6C14.3083 9.5 14.0285 9.38411 13.8222 9.17782C13.6159 8.97153 13.5 8.69174 13.5 8.4V5.5H4.5ZM14.5 5.70711V8.4C14.5 8.42652 14.5105 8.45196 14.5293 8.47071C14.548 8.48946 14.5735 8.5 14.6 8.5H17.2929L14.5 5.70711ZM18.4337 8.75106C18.4335 8.75071 18.4333 8.75035 18.4331 8.75H18.5V8.75028C18.5002 8.60558 18.4719 8.46225 18.4167 8.32851C18.3613 8.19456 18.2801 8.07288 18.1776 7.97045L18.1773 7.97023L15.0298 4.82267L14.4721 4.83495C14.4721 4.83488 14.4721 4.83481 14.472 4.83474L15.0296 4.82245C14.8235 4.61624 14.544 4.50026 14.2524 4.5H14.252H14H4.5C3.96957 4.5 3.46086 4.71071 3.08579 5.08579C2.71071 5.46086 2.5 5.96957 2.5 6.5V20.5C2.5 21.0304 2.71071 21.5391 3.08579 21.9142C3.46086 22.2893 3.96957 22.5 4.5 22.5H16.5C17.0304 22.5 17.5391 22.2893 17.9142 21.9142C18.2893 21.5391 18.5 21.0304 18.5 20.5V9V8.75028L18.5 8.75123L18.4337 8.75106ZM13.5211 4.8557L3.08579 5.08579L13.5211 4.8559C13.5211 4.85584 13.5211 4.85577 13.5211 4.8557Z" fill="black"/>
</svg>
