<svg width="12" height="12" viewBox="0 0 12 12" fill="none" xmlns="http://www.w3.org/2000/svg">
<path d="M7.65609 5.01562L5.40609 3.51562C5.36371 3.48735 5.31444 3.47111 5.26355 3.46866C5.21266 3.4662 5.16206 3.47762 5.11715 3.50169C5.07224 3.52575 5.03472 3.56157 5.00858 3.6053C4.98244 3.64904 4.96867 3.69905 4.96875 3.75V6.75C4.96867 6.80095 4.98244 6.85096 5.00858 6.8947C5.03472 6.93843 5.07224 6.97425 5.11715 6.99831C5.16206 7.02238 5.21266 7.0338 5.26355 7.03134C5.31444 7.02889 5.36371 7.01265 5.40609 6.98438L7.65609 5.48438C7.69477 5.45872 7.7265 5.42389 7.74844 5.383C7.77039 5.3421 7.78188 5.29641 7.78188 5.25C7.78188 5.20359 7.77039 5.1579 7.74844 5.117C7.7265 5.07611 7.69477 5.04128 7.65609 5.01562ZM5.53125 6.22453V4.27547L6.99281 5.25L5.53125 6.22453ZM10.125 1.96875H1.875C1.70095 1.96875 1.53403 2.03789 1.41096 2.16096C1.28789 2.28403 1.21875 2.45095 1.21875 2.625V7.875C1.21875 8.04905 1.28789 8.21597 1.41096 8.33904C1.53403 8.46211 1.70095 8.53125 1.875 8.53125H10.125C10.299 8.53125 10.466 8.46211 10.589 8.33904C10.7121 8.21597 10.7812 8.04905 10.7812 7.875V2.625C10.7812 2.45095 10.7121 2.28403 10.589 2.16096C10.466 2.03789 10.299 1.96875 10.125 1.96875ZM10.2188 7.875C10.2188 7.89986 10.2089 7.92371 10.1913 7.94129C10.1737 7.95887 10.1499 7.96875 10.125 7.96875H1.875C1.85014 7.96875 1.82629 7.95887 1.80871 7.94129C1.79113 7.92371 1.78125 7.89986 1.78125 7.875V2.625C1.78125 2.60014 1.79113 2.57629 1.80871 2.55871C1.82629 2.54113 1.85014 2.53125 1.875 2.53125H10.125C10.1499 2.53125 10.1737 2.54113 10.1913 2.55871C10.2089 2.57629 10.2188 2.60014 10.2188 2.625V7.875ZM10.7812 9.75C10.7812 9.82459 10.7516 9.89613 10.6989 9.94887C10.6461 10.0016 10.5746 10.0312 10.5 10.0312H1.5C1.42541 10.0312 1.35387 10.0016 1.30113 9.94887C1.24838 9.89613 1.21875 9.82459 1.21875 9.75C1.21875 9.67541 1.24838 9.60387 1.30113 9.55113C1.35387 9.49838 1.42541 9.46875 1.5 9.46875H10.5C10.5746 9.46875 10.6461 9.49838 10.6989 9.55113C10.7516 9.60387 10.7812 9.67541 10.7812 9.75Z" fill="black"/>
</svg>
