<svg width="24" height="24" viewBox="0 0 24 24" fill="none" xmlns="http://www.w3.org/2000/svg">
<path d="M3.5 12.5H19.5V21C19.5 21.2761 19.2761 21.5 19 21.5H4C3.72386 21.5 3.5 21.2761 3.5 21V12.5Z" stroke="black"/>
<path d="M3.5 12.5V12L6.70119 8.3415C6.89108 8.12448 7.16541 8 7.45377 8H10" stroke="black"/>
<path d="M19.5 13V12L17.2938 8.47C17.111 8.17762 16.7905 8 16.4458 8H14" stroke="black"/>
<path d="M14.5285 6.08371C14.491 6.12099 14.4465 6.15057 14.3975 6.17076C14.3485 6.19094 14.2959 6.20133 14.2428 6.20133C14.1898 6.20133 14.1372 6.19094 14.0882 6.17076C14.0392 6.15057 13.9947 6.12099 13.9572 6.08371L12.227 4.36771V9.26675C12.227 9.37281 12.1845 9.47453 12.1089 9.54953C12.0332 9.62453 11.9307 9.66667 11.8237 9.66667C11.7168 9.66667 11.6142 9.62453 11.5386 9.54953C11.463 9.47453 11.4205 9.37281 11.4205 9.26675V4.36771L9.68957 6.08371C9.61382 6.15884 9.51107 6.20104 9.40394 6.20104C9.29681 6.20104 9.19406 6.15884 9.11831 6.08371C9.04256 6.00858 9 5.90668 9 5.80043C9 5.69418 9.04256 5.59228 9.11831 5.51715L11.5378 3.11763C11.5752 3.08034 11.6197 3.05076 11.6687 3.03058C11.7178 3.01039 11.7703 3 11.8234 3C11.8765 3 11.929 3.01039 11.978 3.03058C12.027 3.05076 12.0716 3.08034 12.109 3.11763L14.5285 5.51715C14.566 5.55431 14.5959 5.59845 14.6162 5.64707C14.6366 5.69568 14.6471 5.74779 14.6471 5.80043C14.6471 5.85306 14.6366 5.90518 14.6162 5.95379C14.5959 6.0024 14.566 6.04655 14.5285 6.08371Z" fill="black"/>
</svg>
