<svg width="24" height="24" viewBox="0 0 24 24" fill="none" xmlns="http://www.w3.org/2000/svg">
<path fill-rule="evenodd" clip-rule="evenodd" d="M19 21V7.70164L13.8954 3H5V21H19ZM5 2C4.44772 2 4 2.44772 4 3V21C4 21.5523 4.44772 22 5 22H19C19.5523 22 20 21.5523 20 21V7.70164C20 7.42216 19.883 7.15544 19.6775 6.9661L14.5728 2.26445C14.3882 2.0944 14.1464 2 13.8954 2H5ZM12.0001 7.26172H7.42871V6.26172H12.0001V7.26172ZM7.42871 9.41797V10.418H16.5716V9.41797H7.42871ZM7.42871 13.582V12.582H16.5716V13.582H7.42871ZM7.42871 16.7383H12.0001V15.7383H7.42871V16.7383Z" fill="black"/>
</svg>
