<svg width="12" height="12" viewBox="0 0 12 12" fill="none" xmlns="http://www.w3.org/2000/svg">
<path d="M1.7998 2.09922C1.7998 1.86052 1.89463 1.63161 2.06341 1.46282C2.23219 1.29404 2.46111 1.19922 2.6998 1.19922H9.2998C9.5385 1.19922 9.76742 1.29404 9.9362 1.46282C10.105 1.63161 10.1998 1.86052 10.1998 2.09922V2.69922C10.1998 2.93791 10.105 3.16683 9.9362 3.33562C9.76742 3.5044 9.5385 3.59922 9.2998 3.59922H2.6998C2.46111 3.59922 2.23219 3.5044 2.06341 3.33562C1.89463 3.16683 1.7998 2.93791 1.7998 2.69922V2.09922ZM2.6998 1.79922C2.62024 1.79922 2.54393 1.83083 2.48767 1.88709C2.43141 1.94335 2.3998 2.01965 2.3998 2.09922V2.69922C2.3998 2.77878 2.43141 2.85509 2.48767 2.91135C2.54393 2.96761 2.62024 2.99922 2.6998 2.99922H9.2998C9.37937 2.99922 9.45568 2.96761 9.51194 2.91135C9.5682 2.85509 9.5998 2.77878 9.5998 2.69922V2.09922C9.5998 2.01965 9.5682 1.94335 9.51194 1.88709C9.45568 1.83083 9.37937 1.79922 9.2998 1.79922H2.6998ZM1.7998 5.69922C1.7998 5.46052 1.89463 5.23161 2.06341 5.06282C2.23219 4.89404 2.46111 4.79922 2.6998 4.79922H9.2998C9.5385 4.79922 9.76742 4.89404 9.9362 5.06282C10.105 5.23161 10.1998 5.46052 10.1998 5.69922V6.29922C10.1998 6.53791 10.105 6.76683 9.9362 6.93562C9.76742 7.1044 9.5385 7.19922 9.2998 7.19922H2.6998C2.46111 7.19922 2.23219 7.1044 2.06341 6.93562C1.89463 6.76683 1.7998 6.53791 1.7998 6.29922V5.69922ZM2.6998 5.39922C2.62024 5.39922 2.54393 5.43083 2.48767 5.48709C2.43141 5.54335 2.3998 5.61965 2.3998 5.69922V6.29922C2.3998 6.37878 2.43141 6.45509 2.48767 6.51135C2.54393 6.56761 2.62024 6.59922 2.6998 6.59922H9.2998C9.37937 6.59922 9.45568 6.56761 9.51194 6.51135C9.5682 6.45509 9.5998 6.37878 9.5998 6.29922V5.69922C9.5998 5.61965 9.5682 5.54335 9.51194 5.48709C9.45568 5.43083 9.37937 5.39922 9.2998 5.39922H2.6998ZM2.6998 8.39922C2.46111 8.39922 2.23219 8.49404 2.06341 8.66282C1.89463 8.83161 1.7998 9.06052 1.7998 9.29922V9.89922C1.7998 10.1379 1.89463 10.3668 2.06341 10.5356C2.23219 10.7044 2.46111 10.7992 2.6998 10.7992H9.2998C9.5385 10.7992 9.76742 10.7044 9.9362 10.5356C10.105 10.3668 10.1998 10.1379 10.1998 9.89922V9.29922C10.1998 9.06052 10.105 8.83161 9.9362 8.66282C9.76742 8.49404 9.5385 8.39922 9.2998 8.39922H2.6998ZM2.3998 9.29922C2.3998 9.21965 2.43141 9.14335 2.48767 9.08709C2.54393 9.03083 2.62024 8.99922 2.6998 8.99922H9.2998C9.37937 8.99922 9.45568 9.03083 9.51194 9.08709C9.5682 9.14335 9.5998 9.21965 9.5998 9.29922V9.89922C9.5998 9.97878 9.5682 10.0551 9.51194 10.1114C9.45568 10.1676 9.37937 10.1992 9.2998 10.1992H2.6998C2.62024 10.1992 2.54393 10.1676 2.48767 10.1114C2.43141 10.0551 2.3998 9.97878 2.3998 9.89922V9.29922Z" fill="black"/>
</svg>
