<svg width="24" height="24" viewBox="0 0 24 24" fill="none" xmlns="http://www.w3.org/2000/svg">
<g clip-path="url(#clip0_1448_3871)">
<path d="M6.06667 11.7H5.56667V12.2V13.7533H5.5V11.6333H11H11.5V11.1333V9.5H11.5667V11.1333V11.6333H12.0667H17.5667V13.7533H17.5V12.2V11.7H17H6.06667ZM7.5 4C7.5 3.72386 7.72386 3.5 8 3.5H15C15.2761 3.5 15.5 3.72386 15.5 4V7C15.5 7.27614 15.2761 7.5 15 7.5H8C7.72386 7.5 7.5 7.27614 7.5 7V4ZM1.5 16C1.5 15.7239 1.72386 15.5 2 15.5H9C9.27614 15.5 9.5 15.7239 9.5 16V19C9.5 19.2761 9.27614 19.5 9 19.5H2C1.72386 19.5 1.5 19.2761 1.5 19V16ZM14.5 16C14.5 15.7239 14.7239 15.5 15 15.5H22C22.2761 15.5 22.5 15.7239 22.5 16V19C22.5 19.2761 22.2761 19.5 22 19.5H15C14.7239 19.5 14.5 19.2761 14.5 19V16Z" stroke="black"/>
</g>
<defs>
<clipPath id="clip0_1448_3871">
<rect width="24" height="24" fill="white"/>
</clipPath>
</defs>
</svg>
