<svg width="12" height="12" viewBox="0 0 12 12" fill="none" xmlns="http://www.w3.org/2000/svg">
<path fill-rule="evenodd" clip-rule="evenodd" d="M5.4482 2H7.55198C8.49234 2 9.23726 2 9.81999 2.07869C10.4196 2.15994 10.9051 2.33069 11.2883 2.71537C11.671 3.10057 11.8409 3.58863 11.9217 4.19137C11.9678 4.53749 11.9867 4.94017 11.9944 5.40663C12.0011 5.44572 12.0018 5.48561 11.9964 5.52491C12 5.816 12 6.13074 12 6.4712V6.5288C12 7.47406 12 8.22286 11.9217 8.80863C11.8409 9.41137 11.671 9.89943 11.2883 10.2846C10.9051 10.6693 10.4196 10.8401 9.81999 10.9213C9.23674 11 8.49234 11 7.55198 11H5.4482C4.50784 11 3.76293 11 3.18019 10.9213C2.58057 10.8401 2.09505 10.6693 1.71184 10.2846C1.32915 9.89943 1.15929 9.41137 1.07846 8.80863C1.00018 8.22234 1.00018 7.47406 1.00018 6.5288V6.4712C1.00018 6.13074 1.00018 5.816 1.00376 5.52491C0.998276 5.48564 0.998793 5.44575 1.0053 5.40663C1.01348 4.94017 1.03241 4.53749 1.07846 4.19137C1.15929 3.58863 1.32915 3.10057 1.71184 2.71537C2.09505 2.33069 2.58057 2.15994 3.18019 2.07869C3.76344 2 4.50784 2 5.4482 2ZM1.76863 5.85714C1.76761 6.05669 1.76761 6.27063 1.76761 6.5C1.76761 7.48074 1.76863 8.1776 1.83924 8.70629C1.9083 9.22314 2.03826 9.52143 2.25467 9.73897C2.47109 9.95651 2.76783 10.0871 3.28251 10.1566C3.80846 10.2275 4.50119 10.2286 5.47685 10.2286H7.52333C8.49899 10.2286 9.19223 10.2275 9.71818 10.1566C10.2324 10.0871 10.5291 9.95651 10.7455 9.73897C10.9619 9.52143 11.0919 9.22314 11.1609 8.70577C11.2315 8.17709 11.2326 7.48074 11.2326 6.5C11.2326 6.27063 11.2326 6.05669 11.2315 5.85714H1.76863ZM11.2193 5.08571H1.78091C1.79114 4.78383 1.80854 4.52309 1.83924 4.29371C1.9083 3.77686 2.03826 3.47857 2.25467 3.26103C2.47109 3.04349 2.76783 2.91286 3.28251 2.84343C3.80846 2.77246 4.50119 2.77143 5.47685 2.77143H7.52333C8.49899 2.77143 9.19223 2.77246 9.71818 2.84343C10.2324 2.91286 10.5291 3.04349 10.7455 3.26103C10.9619 3.47857 11.0919 3.77686 11.1609 4.29423C11.1916 4.52309 11.209 4.78383 11.2193 5.08571ZM8.52355 6.62857H8.56959C8.79112 6.62857 8.99424 6.62857 9.15898 6.65069C9.34111 6.67537 9.53297 6.73297 9.69106 6.8924C9.84966 7.05131 9.90697 7.24417 9.93152 7.42726C9.95352 7.59337 9.95352 7.79754 9.95352 8.01971V8.066C9.95352 8.28869 9.95352 8.49286 9.93152 8.65846C9.90697 8.84154 9.84966 9.0344 9.69106 9.19331C9.53297 9.35274 9.34111 9.41034 9.15898 9.43503C8.99372 9.45714 8.79061 9.45714 8.56959 9.45714H8.52355C8.30201 9.45714 8.0989 9.45714 7.93416 9.43503C7.75202 9.41034 7.56017 9.35274 7.40207 9.19331C7.24347 9.0344 7.18617 8.84154 7.16161 8.65846C7.13961 8.49234 7.13961 8.28817 7.13961 8.066V8.01971C7.13961 7.79703 7.13961 7.59286 7.16161 7.42726C7.18617 7.24417 7.24347 7.05131 7.40207 6.8924C7.56017 6.73297 7.75202 6.67537 7.93416 6.65069C8.09941 6.62857 8.30253 6.62857 8.52355 6.62857ZM7.94542 7.43703L7.94439 7.43754L7.94388 7.43909C7.93282 7.46836 7.9256 7.49896 7.92239 7.53011C7.90807 7.63811 7.90704 7.78931 7.90704 8.04286C7.90704 8.2964 7.90807 8.4476 7.92239 8.5556C7.9256 8.58675 7.93282 8.61735 7.94388 8.64663L7.94439 8.64817L7.94593 8.64869C7.97505 8.6598 8.00549 8.66706 8.03648 8.67029C8.14392 8.68469 8.29434 8.68571 8.54657 8.68571C8.7988 8.68571 8.94921 8.68469 9.05665 8.67029C9.08764 8.66706 9.11808 8.6598 9.14721 8.64869L9.14874 8.64817L9.14926 8.64663C9.16032 8.61735 9.16754 8.58675 9.17074 8.5556C9.18507 8.4476 9.18609 8.2964 9.18609 8.04286C9.18609 7.78931 9.18507 7.63811 9.17074 7.53011C9.16754 7.49896 9.16032 7.46836 9.14926 7.43909L9.14874 7.43754L9.14721 7.43703C9.11808 7.42591 9.08764 7.41865 9.05665 7.41543C8.94921 7.40103 8.7988 7.4 8.54657 7.4C8.29434 7.4 8.14392 7.40103 8.03648 7.41543C8.00549 7.41865 7.97505 7.42591 7.94593 7.43703M3.04666 7.27143C3.04666 7.16913 3.08709 7.07102 3.15905 6.99869C3.23101 6.92635 3.32861 6.88571 3.43037 6.88571H4.45361C4.55538 6.88571 4.65298 6.92635 4.72494 6.99869C4.7969 7.07102 4.83733 7.16913 4.83733 7.27143C4.83733 7.37373 4.7969 7.47183 4.72494 7.54417C4.65298 7.61651 4.55538 7.65714 4.45361 7.65714H3.43037C3.32861 7.65714 3.23101 7.61651 3.15905 7.54417C3.08709 7.47183 3.04666 7.37373 3.04666 7.27143ZM3.04666 8.81429C3.04666 8.71199 3.08709 8.61388 3.15905 8.54154C3.23101 8.46921 3.32861 8.42857 3.43037 8.42857H5.47685C5.57862 8.42857 5.67622 8.46921 5.74818 8.54154C5.82014 8.61388 5.86057 8.71199 5.86057 8.81429C5.86057 8.91658 5.82014 9.01469 5.74818 9.08703C5.67622 9.15936 5.57862 9.2 5.47685 9.2H3.43037C3.32861 9.2 3.23101 9.15936 3.15905 9.08703C3.08709 9.01469 3.04666 8.91658 3.04666 8.81429Z" fill="black"/>
</svg>
