<?xml version="1.0" encoding="UTF-8" standalone="no"?>
<svg
   height="48"
   width="48.005375"
   version="1.1"
   id="svg58"
   sodipodi:docname="start-event.svg"
   inkscape:version="1.2.1 (9c6d41e4, 2022-07-14)"
   xmlns:inkscape="http://www.inkscape.org/namespaces/inkscape"
   xmlns:sodipodi="http://sodipodi.sourceforge.net/DTD/sodipodi-0.dtd"
   xmlns="http://www.w3.org/2000/svg"
   xmlns:svg="http://www.w3.org/2000/svg">
  <defs
     id="defs62" />
  <sodipodi:namedview
     id="namedview60"
     pagecolor="#ffffff"
     bordercolor="#666666"
     borderopacity="1.0"
     inkscape:showpageshadow="2"
     inkscape:pageopacity="0.0"
     inkscape:pagecheckerboard="0"
     inkscape:deskcolor="#d1d1d1"
     showgrid="false"
     inkscape:zoom="4.9166667"
     inkscape:cx="24.101695"
     inkscape:cy="24"
     inkscape:window-width="1309"
     inkscape:window-height="456"
     inkscape:window-x="0"
     inkscape:window-y="25"
     inkscape:window-maximized="0"
     inkscape:current-layer="svg58" />
  <path
     d="M 23.773419,1.1919136e-4 C 14.416089,-0.03095081 5.4373285,6.0152802 1.8858485,14.66437 c -3.738771,8.56492 -1.79616195,19.20468 4.74385,25.88451 6.2900805,6.77073 16.6536605,9.25587 25.3331805,6.08793 8.99525,-3.0631 15.63605,-11.89698 15.99704,-21.40479 0.60548,-9.34263 -4.89104,-18.6634598 -13.30719,-22.7330798 -3.29557,-1.64458601 -6.9757,-2.50221201 -10.65819,-2.49694701 -0.0737,-9.9899864e-4 -0.14744,-0.001599999 -0.22112,-0.0018999986 z M 24.431099,2.5936402 c 9.15952,0.0503 17.78619,6.67648 20.15505,15.5402098 2.5172,8.48074 -0.88757,18.29986 -8.19533,23.3228 -7.59105,5.57954 -18.84816,5.17586 -26.01661,-0.93797 C 3.1514985,34.76 0.56615155,24.1082 4.2718885,15.66122 7.4837485,7.8522702 15.546109,2.4971002 23.994539,2.5962302 c 0.14563,-0.003 0.29117,-0.003 0.43656,-0.003 z"
     id="path56"
     style="stroke-width:0.0259423" />
</svg>
