<svg width="12" height="12" viewBox="0 0 12 12" fill="none" xmlns="http://www.w3.org/2000/svg">
<path d="M8.25 3.25H3.75C3.02065 3.25 2.32118 3.53973 1.80546 4.05546C1.28973 4.57118 1 5.27065 1 6C1 6.72935 1.28973 7.42882 1.80546 7.94454C2.32118 8.46027 3.02065 8.75 3.75 8.75H8.25C8.97935 8.75 9.67882 8.46027 10.1945 7.94454C10.7103 7.42882 11 6.72935 11 6C11 5.27065 10.7103 4.57118 10.1945 4.05546C9.67882 3.53973 8.97935 3.25 8.25 3.25ZM8.25 8.25H3.75C3.15326 8.25 2.58097 8.01295 2.15901 7.59099C1.73705 7.16903 1.5 6.59674 1.5 6C1.5 5.40326 1.73705 4.83097 2.15901 4.40901C2.58097 3.98705 3.15326 3.75 3.75 3.75H8.25C8.84674 3.75 9.41903 3.98705 9.84099 4.40901C10.2629 4.83097 10.5 5.40326 10.5 6C10.5 6.59674 10.2629 7.16903 9.84099 7.59099C9.41903 8.01295 8.84674 8.25 8.25 8.25ZM8.25 4.75C7.91848 4.75 7.60054 4.8817 7.36612 5.11612C7.1317 5.35054 7 5.66848 7 6C7 6.33152 7.1317 6.64946 7.36612 6.88388C7.60054 7.1183 7.91848 7.25 8.25 7.25C8.58152 7.25 8.89946 7.1183 9.13388 6.88388C9.3683 6.64946 9.5 6.33152 9.5 6C9.5 5.66848 9.3683 5.35054 9.13388 5.11612C8.89946 4.8817 8.58152 4.75 8.25 4.75ZM8.25 6.75C8.05109 6.75 7.86032 6.67098 7.71967 6.53033C7.57902 6.38968 7.5 6.19891 7.5 6C7.5 5.80109 7.57902 5.61032 7.71967 5.46967C7.86032 5.32902 8.05109 5.25 8.25 5.25C8.44891 5.25 8.63968 5.32902 8.78033 5.46967C8.92098 5.61032 9 5.80109 9 6C9 6.19891 8.92098 6.38968 8.78033 6.53033C8.63968 6.67098 8.44891 6.75 8.25 6.75Z" fill="black"/>
</svg>
