<?xml version="1.0" encoding="UTF-8" standalone="no"?>
<svg
   height="46.629341"
   viewBox="0 0 47.999748 46.629341"
   width="47.999748"
   version="1.1"
   id="svg664"
   sodipodi:docname="data-store.svg"
   inkscape:version="1.2.1 (9c6d41e4, 2022-07-14)"
   xmlns:inkscape="http://www.inkscape.org/namespaces/inkscape"
   xmlns:sodipodi="http://sodipodi.sourceforge.net/DTD/sodipodi-0.dtd"
   xmlns="http://www.w3.org/2000/svg"
   xmlns:svg="http://www.w3.org/2000/svg">
  <defs
     id="defs668" />
  <sodipodi:namedview
     id="namedview666"
     pagecolor="#ffffff"
     bordercolor="#666666"
     borderopacity="1.0"
     inkscape:showpageshadow="2"
     inkscape:pageopacity="0.0"
     inkscape:pagecheckerboard="0"
     inkscape:deskcolor="#d1d1d1"
     showgrid="false"
     inkscape:zoom="0.118"
     inkscape:cx="682.20339"
     inkscape:cy="661.01695"
     inkscape:window-width="1309"
     inkscape:window-height="456"
     inkscape:window-x="0"
     inkscape:window-y="25"
     inkscape:window-maximized="0"
     inkscape:current-layer="svg664" />
  <path
     d="M 24.0117,8e-5 C 18.44465,8e-5 12.88675,0.45904 8.53381,1.40838 6.35734,1.88304 4.48292,2.47304 3.01342,3.24743 1.59799,3.99332 0.44617,4.95534 0.091,6.34561 0.0665,6.41821 0.0489,6.49296 0.0383,6.56884 L 0,6.75473 0.026,6.88068 c -0.0182,11.11349 0,21.6889 0,33.11989 l 0.0254,0.12333 c 0.30454,1.47778 1.49253,2.48371 2.96204,3.2581 1.4695,0.77438 3.34392,1.36431 5.52039,1.83898 4.35294,0.94933 9.91084,1.40836 15.47789,1.40836 5.56704,0 11.12495,-0.45903 15.47788,-1.40836 2.17647,-0.47467 4.0509,-1.0646 5.5204,-1.83898 1.4695,-0.77439 2.65756,-1.78032 2.9621,-3.2581 l 0.0254,-0.12333 c 0,-10.93064 3.5e-4,-22.83551 0,-33.18962 0.003,-0.0528 0.003,-0.10574 0,-0.15853 v -0.0236 l -0.004,-0.0203 C 47.9828,6.50749 47.9596,6.40816 47.9246,6.3128 47.55983,4.94006 46.4146,3.9874 45.01024,3.24735 43.54074,2.47296 41.66631,1.88296 39.48984,1.4083 35.13691,0.45896 29.579,0 24.01196,0 Z m 0,2.46934 c 5.42931,0 10.86777,0.46093 14.9517,1.35159 2.04197,0.44533 3.7461,1.00538 4.89535,1.611 0.91718,0.48333 1.39731,0.96351 1.59377,1.32272 -0.19647,0.35921 -0.67661,0.83941 -1.59377,1.32273 -1.14925,0.60561 -2.85338,1.16559 -4.89535,1.61092 -4.08393,0.89067 -9.52239,1.35166 -14.9517,1.35166 -5.42932,0 -10.86778,-0.46099 -14.95171,-1.35166 C 7.01803,9.24305 5.31389,8.68307 4.16465,8.07746 3.24749,7.59414 2.76735,7.11394 2.57088,6.75473 2.76734,6.39552 3.24746,5.91534 4.16465,5.43201 5.31389,4.82639 7.01803,4.26634 9.05999,3.82101 13.14392,2.93035 18.58238,2.46942 24.0117,2.46942 Z M 2.4953,9.97066 c 0.16809,0.10063 0.34077,0.19792 0.51812,0.29138 1.4695,0.77438 3.34392,1.36431 5.52039,1.83898 4.35294,0.94933 9.91084,1.40836 15.47789,1.40836 5.56704,0 11.12495,-0.45903 15.47788,-1.40836 2.17647,-0.47467 4.0509,-1.0646 5.5204,-1.83898 0.17734,-0.0935 0.35003,-0.19075 0.51812,-0.29138 v 2.89486 c -0.12066,0.36719 -0.59764,0.92801 -1.66935,1.49277 -1.14925,0.60561 -2.85338,1.16559 -4.89535,1.61093 -4.08393,0.89066 -9.52239,1.35166 -14.9517,1.35166 -5.42932,0 -10.86778,-0.461 -14.95171,-1.35166 C 7.01803,15.52388 5.31389,14.9639 4.16465,14.35829 3.09294,13.79353 2.61596,13.23271 2.4953,12.86552 Z m 0,6.28084 c 0.16809,0.10062 0.34077,0.19791 0.51812,0.29137 1.4695,0.77438 3.34392,1.36432 5.52039,1.83898 4.35294,0.94934 9.91084,1.40837 15.47789,1.40837 5.56704,0 11.12495,-0.45903 15.47788,-1.40837 2.17647,-0.47466 4.0509,-1.0646 5.5204,-1.83898 0.17734,-0.0935 0.35003,-0.19075 0.51812,-0.29137 v 2.89486 c -0.12066,0.36719 -0.59764,0.928 -1.66935,1.49276 -1.14925,0.60562 -2.85338,1.1656 -4.89535,1.61093 -4.08393,0.89066 -9.52239,1.35166 -14.9517,1.35166 -5.42932,0 -10.86778,-0.461 -14.95171,-1.35166 C 7.01803,21.80472 5.31389,21.24474 4.16465,20.63912 3.09294,20.07436 2.61596,19.51355 2.4953,19.14636 Z m 0,6.2809 c 0.16808,0.10062 0.34077,0.19785 0.51812,0.2913 1.4695,0.77439 3.34392,1.36432 5.52039,1.83898 4.35294,0.94934 9.91084,1.40837 15.47789,1.40837 5.56704,0 11.12495,-0.45903 15.47788,-1.40837 2.17647,-0.47466 4.0509,-1.06459 5.5204,-1.83898 0.17734,-0.0935 0.35003,-0.19068 0.51812,-0.2913 v 17.17225 c -0.12066,0.36719 -0.59764,0.928 -1.66935,1.49276 -1.14925,0.60562 -2.85338,1.16567 -4.89535,1.611 C 34.87947,43.69908 29.44101,44.16 24.0117,44.16 18.58238,44.16 13.14392,43.69908 9.05999,42.80841 7.01803,42.36308 5.31389,41.80303 4.16465,41.19741 3.09294,40.63265 2.61596,40.07184 2.4953,39.70465 Z"
     id="path662"
     style="stroke-width:0.0352763" />
</svg>
