<?xml version="1.0" encoding="UTF-8" standalone="no"?>
<svg
   height="48"
   width="48.063606"
   version="1.1"
   id="svg410"
   sodipodi:docname="end-event.svg"
   inkscape:version="1.2.1 (9c6d41e4, 2022-07-14)"
   xmlns:inkscape="http://www.inkscape.org/namespaces/inkscape"
   xmlns:sodipodi="http://sodipodi.sourceforge.net/DTD/sodipodi-0.dtd"
   xmlns="http://www.w3.org/2000/svg"
   xmlns:svg="http://www.w3.org/2000/svg">
  <defs
     id="defs414" />
  <sodipodi:namedview
     id="namedview412"
     pagecolor="#ffffff"
     bordercolor="#666666"
     borderopacity="1.0"
     inkscape:showpageshadow="2"
     inkscape:pageopacity="0.0"
     inkscape:pagecheckerboard="0"
     inkscape:deskcolor="#d1d1d1"
     showgrid="false"
     inkscape:zoom="0.11523438"
     inkscape:cx="932.88136"
     inkscape:cy="928.54237"
     inkscape:window-width="1309"
     inkscape:window-height="456"
     inkscape:window-x="0"
     inkscape:window-y="25"
     inkscape:window-maximized="0"
     inkscape:current-layer="svg410" />
  <path
     d="M 23.792014,5.8684023e-4 C 12.998594,-0.07977316 2.8728441,8.1026298 0.60187305,18.64342 -1.5884429,27.90242 2.3332641,38.2305 10.187764,43.62835 c 7.62387,5.46037 18.48928,5.8883 26.4198,0.81693 7.97433,-4.88327 12.67019,-14.63475 11.18223,-23.91385 -1.36254,-9.61888 -9.04628,-17.9846102 -18.58791,-19.96177616 -1.77399,-0.395785 -3.59271,-0.581121 -5.40987,-0.56906699977 z M 24.365124,7.5247698 c 7.93111,-0.0251 15.21646,6.5387402 16.02485,14.4346002 1.03188,7.54704 -3.83378,15.44164 -11.1491,17.71062 -7.13991,2.42971 -15.74944,-0.67102 -19.4690099,-7.29389 -4.11572,-6.87124 -2.36459,-16.6629 4.1572499,-21.43341 2.9576,-2.2820502 6.70191,-3.5038102 10.43601,-3.4179202 z"
     id="path408"
     style="stroke-width:2.51133" />
</svg>
