<?xml version="1.0" encoding="UTF-8" standalone="no"?>
<svg
   height="48.002659"
   width="47.999546"
   version="1.1"
   id="svg404"
   sodipodi:docname="gateway-parallel.svg"
   inkscape:version="1.2.1 (9c6d41e4, 2022-07-14)"
   xmlns:inkscape="http://www.inkscape.org/namespaces/inkscape"
   xmlns:sodipodi="http://sodipodi.sourceforge.net/DTD/sodipodi-0.dtd"
   xmlns="http://www.w3.org/2000/svg"
   xmlns:svg="http://www.w3.org/2000/svg">
  <defs
     id="defs408" />
  <sodipodi:namedview
     id="namedview406"
     pagecolor="#ffffff"
     bordercolor="#666666"
     borderopacity="1.0"
     inkscape:showpageshadow="2"
     inkscape:pageopacity="0.0"
     inkscape:pagecheckerboard="0"
     inkscape:deskcolor="#d1d1d1"
     showgrid="false"
     inkscape:zoom="0.11523438"
     inkscape:cx="932.88136"
     inkscape:cy="928.54237"
     inkscape:window-width="1309"
     inkscape:window-height="456"
     inkscape:window-x="0"
     inkscape:window-y="25"
     inkscape:window-maximized="0"
     inkscape:current-layer="svg404" />
  <path
     d="M 24.000009,7.7516067e-7 C 23.498389,-4.3822484e-4 22.996789,0.18558778 22.624669,0.55944578 L 0.55650899,22.627804 c -0.744232,0.7442 -0.740785,2.00653 0.003,2.75073 L 22.624219,47.443094 c 0.74423,0.74445 2.0065,0.74772 2.75073,0 l 22.06821,-22.06805 c 0.74423,-0.74421 0.74079,-2.00659 -0.004,-2.75079 L 25.375349,0.55944578 C 25.003229,0.18734578 24.501629,4.4077516e-4 24.000009,7.7516067e-7 Z M 23.998009,3.2720538 44.730729,24.004924 23.998009,44.737544 3.265289,24.004924 Z m -0.56599,8.5619202 c 0,2.6e-4 -0.2507,0.0477 -0.25082,0.0477 -2.6e-4,0 -0.2053,0.13816 -0.20545,0.13816 -2.5e-4,2.5e-4 -0.1427,0.21097 -0.14282,0.21097 0,2.5e-4 -0.0483,0.25118 -0.0484,0.25118 v 10.30202 h -10.30653 l -0.002,-0.002 c 0,2.5e-4 -0.24968,0.0553 -0.24981,0.0553 -2.6e-4,2.5e-4 -0.20526,0.13817 -0.20539,0.13817 l 2e-4,-0.003 c -2.6e-4,2.5e-4 -0.1427,0.21097 -0.14282,0.21097 -2.6e-4,0 -0.0483,0.25118 -0.0484,0.25118 v 1.12847 c 0,0 0.048,0.25393 0.0497,0.25569 0,2.5e-4 0.14222,0.20595 0.14222,0.20595 2.6e-4,2.5e-4 0.20656,0.13817 0.20661,0.13817 2.6e-4,2.4e-4 0.25067,0.0552 0.25077,0.0552 h 10.30532 v 10.3003 l -0.002,-0.002 c 0,2.5e-4 0.0497,0.25569 0.0497,0.25569 0,2.6e-4 0.14217,0.20595 0.14217,0.20595 2.6e-4,2.5e-4 0.20661,0.13812 0.20666,0.13812 0,0 0.24897,0.0528 0.25083,0.0553 l 1.12821,-2.5e-4 c 2.9e-4,0 0.25561,-0.0527 0.25575,-0.0527 0,0 0.20529,-0.13811 0.20544,-0.13811 2.6e-4,-2.6e-4 0.14202,-0.20601 0.14217,-0.20601 0,0 0.049,-0.25493 0.0491,-0.25493 v -10.30075 h 10.30273 c 2.8e-4,2.5e-4 0.25561,-0.0527 0.25574,-0.0527 2.6e-4,0 0.20531,-0.13816 0.20544,-0.13816 2.6e-4,-2.5e-4 0.14202,-0.20595 0.14217,-0.20595 0,0 0.0489,-0.25493 0.0491,-0.25493 v -1.12822 c 0,-2.5e-4 -0.0488,-0.24867 -0.0487,-0.25118 -2.5e-4,-2.5e-4 -0.14147,-0.21097 -0.14323,-0.21097 -2.6e-4,-2.5e-4 -0.20659,-0.13811 -0.20666,-0.13811 0,2.5e-4 -0.25491,-0.0553 -0.25503,-0.0528 h -10.30167 v -10.30177 c 0,-2.5e-4 -0.0487,-0.24861 -0.0487,-0.25112 -2.6e-4,-2.5e-4 -0.14146,-0.21102 -0.14146,-0.21102 -2.6e-4,-2.6e-4 -0.20656,-0.13812 -0.20661,-0.13812 -2.6e-4,0 -0.25563,-0.0502 -0.25574,-0.0502 z"
     id="path402"
     style="stroke-width:0.0259594" />
</svg>
