<svg xmlns="http://www.w3.org/2000/svg" xmlns:xlink="http://www.w3.org/1999/xlink" width="500" zoomAndPan="magnify" viewBox="0 0 375 374.999991" height="500" preserveAspectRatio="xMidYMid meet" version="1.0"><defs><g/><clipPath id="b7615158f1"><path d="M 32 6 L 343 6 L 343 317.222656 L 32 317.222656 Z M 32 6 " clip-rule="nonzero"/></clipPath></defs><g clip-path="url(#b7615158f1)"><path fill="#000000" d="M 337.015625 214.117188 C 333.75 214.117188 331.101562 211.464844 331.101562 208.199219 L 331.101562 26.761719 L 230.707031 127.160156 C 228.394531 129.46875 224.652344 129.46875 222.339844 127.160156 C 220.03125 124.851562 220.03125 121.105469 222.339844 118.796875 L 332.832031 8.296875 C 334.523438 6.601562 337.066406 6.097656 339.28125 7.011719 C 341.488281 7.929688 342.929688 10.085938 342.929688 12.476562 L 342.929688 208.199219 C 342.929688 211.464844 340.28125 214.117188 337.015625 214.117188 Z M 38.207031 317.222656 C 34.941406 317.222656 32.292969 314.578125 32.292969 311.308594 L 32.292969 105.09375 C 32.292969 102.699219 33.734375 100.542969 35.945312 99.628906 C 38.15625 98.710938 40.699219 99.21875 42.390625 100.90625 L 145.492188 204.019531 C 147.800781 206.328125 147.800781 210.074219 145.492188 212.382812 C 143.179688 214.691406 139.4375 214.691406 137.125 212.382812 L 44.125 119.371094 L 44.125 311.308594 C 44.125 314.578125 41.472656 317.222656 38.207031 317.222656 Z M 337.015625 317.222656 C 335.503906 317.222656 333.988281 316.644531 332.832031 315.492188 L 34.027344 16.660156 C 31.714844 14.351562 31.714844 10.605469 34.027344 8.296875 C 36.335938 5.984375 40.082031 5.984375 42.390625 8.296875 L 341.195312 307.125 C 343.507812 309.433594 343.507812 313.179688 341.195312 315.492188 C 340.039062 316.644531 338.527344 317.222656 337.015625 317.222656 " fill-opacity="1" fill-rule="nonzero"/></g><g fill="#000000" fill-opacity="1"><g transform="translate(23.284113, 362.509219)"><g><path d="M 7.863281 0 C 8.277344 0 8.492188 -0.214844 8.492188 -0.628906 L 8.492188 -9.089844 L 13.804688 -2.886719 C 14.097656 -2.550781 14.40625 -2.550781 14.683594 -2.886719 L 20.070312 -9.152344 L 20.070312 -0.628906 C 20.070312 -0.214844 20.289062 0 20.703125 0 L 25.570312 0 C 25.984375 0 26.199219 -0.214844 26.199219 -0.628906 L 26.199219 -23.050781 C 26.199219 -24.21875 25.386719 -24.496094 24.664062 -23.589844 L 14.25 -10.566406 L 3.902344 -23.589844 C 3.148438 -24.542969 2.363281 -24.21875 2.363281 -23.050781 L 2.363281 -0.628906 C 2.363281 -0.214844 2.578125 0 2.996094 0 Z M 7.863281 0 "/></g></g></g><g fill="#000000" fill-opacity="1"><g transform="translate(77.014607, 362.509219)"><g><path d="M 12.992188 -23.589844 C 12.515625 -24.554688 11.765625 -24.554688 11.289062 -23.589844 L 0.476562 -0.753906 C 0.277344 -0.308594 0.476562 0 0.9375 0 L 6.480469 0 C 6.820312 0 7.078125 -0.183594 7.203125 -0.507812 L 7.96875 -2.488281 L 16.308594 -2.488281 L 17.078125 -0.507812 C 17.199219 -0.183594 17.460938 0 17.800781 0 L 23.34375 0 C 23.804688 0 24.003906 -0.308594 23.804688 -0.753906 Z M 12.148438 -13.128906 L 14.464844 -7.203125 L 9.8125 -7.203125 Z M 12.148438 -13.128906 "/></g></g></g><g fill="#000000" fill-opacity="1"><g transform="translate(126.491929, 362.509219)"><g><path d="M 14.160156 0.628906 C 18.691406 0.628906 22.328125 -1.074219 24.554688 -3.902344 C 24.785156 -4.175781 24.695312 -4.4375 24.339844 -4.683594 L 20.195312 -7.449219 C 19.871094 -7.679688 19.597656 -7.617188 19.351562 -7.292969 C 18.183594 -5.882812 16.386719 -5.039062 14.160156 -5.039062 C 10.257812 -5.039062 7.679688 -7.617188 7.679688 -11.792969 C 7.679688 -15.972656 10.257812 -18.550781 14.160156 -18.550781 C 16.386719 -18.550781 18.183594 -17.707031 19.351562 -16.292969 C 19.597656 -15.972656 19.871094 -15.910156 20.195312 -16.140625 L 24.339844 -18.90625 C 24.695312 -19.152344 24.757812 -19.441406 24.496094 -19.75 C 22.238281 -22.542969 18.613281 -24.21875 14.160156 -24.21875 C 6.480469 -24.21875 1.382812 -19.382812 1.382812 -11.792969 C 1.382812 -4.207031 6.480469 0.628906 14.160156 0.628906 Z M 14.160156 0.628906 "/></g></g></g><g fill="#000000" fill-opacity="1"><g transform="translate(177.351142, 362.509219)"><g><path d="M 7.984375 0 C 8.402344 0 8.617188 -0.214844 8.617188 -0.628906 L 8.617188 -7.957031 L 16.863281 -7.957031 L 16.863281 -0.628906 C 16.863281 -0.214844 17.078125 0 17.492188 0 L 22.515625 0 C 22.929688 0 23.144531 -0.214844 23.144531 -0.628906 L 23.144531 -22.960938 C 23.144531 -23.375 22.929688 -23.589844 22.515625 -23.589844 L 17.492188 -23.589844 C 17.078125 -23.589844 16.863281 -23.375 16.863281 -22.960938 L 16.863281 -13.300781 L 8.617188 -13.300781 L 8.617188 -22.960938 C 8.617188 -23.375 8.402344 -23.589844 7.984375 -23.589844 L 2.964844 -23.589844 C 2.550781 -23.589844 2.335938 -23.375 2.335938 -22.960938 L 2.335938 -0.628906 C 2.335938 -0.214844 2.550781 0 2.964844 0 Z M 7.984375 0 "/></g></g></g><g fill="#000000" fill-opacity="1"><g transform="translate(228.026115, 362.509219)"><g><path d="M 12.992188 -23.589844 C 12.515625 -24.554688 11.765625 -24.554688 11.289062 -23.589844 L 0.476562 -0.753906 C 0.277344 -0.308594 0.476562 0 0.9375 0 L 6.480469 0 C 6.820312 0 7.078125 -0.183594 7.203125 -0.507812 L 7.96875 -2.488281 L 16.308594 -2.488281 L 17.078125 -0.507812 C 17.199219 -0.183594 17.460938 0 17.800781 0 L 23.34375 0 C 23.804688 0 24.003906 -0.308594 23.804688 -0.753906 Z M 12.148438 -13.128906 L 14.464844 -7.203125 L 9.8125 -7.203125 Z M 12.148438 -13.128906 "/></g></g></g><g fill="#000000" fill-opacity="1"><g transform="translate(277.503443, 362.509219)"><g><path d="M 17.585938 -8.859375 C 19.902344 -10.074219 21.222656 -12.59375 21.222656 -16.003906 C 21.222656 -20.042969 19.410156 -23.589844 12.761719 -23.589844 L 2.964844 -23.589844 C 2.550781 -23.589844 2.335938 -23.375 2.335938 -22.960938 L 2.335938 -0.628906 C 2.335938 -0.214844 2.550781 0 2.964844 0 L 8.015625 0 C 8.429688 0 8.644531 -0.214844 8.644531 -0.628906 L 8.644531 -8.046875 L 11.304688 -8.046875 L 15.097656 -0.476562 C 15.25 -0.152344 15.480469 0 15.816406 0 L 21.546875 0 C 22.023438 0 22.207031 -0.308594 21.992188 -0.753906 Z M 11.671875 -18.246094 C 12.929688 -18.246094 14.941406 -18.246094 14.941406 -15.941406 C 14.941406 -13.390625 12.546875 -13.390625 11.671875 -13.390625 L 8.644531 -13.390625 L 8.644531 -18.246094 Z M 11.671875 -18.246094 "/></g></g></g><g fill="#000000" fill-opacity="1"><g transform="translate(326.013445, 362.509219)"><g><path d="M 14.160156 0.628906 C 18.691406 0.628906 22.328125 -1.074219 24.554688 -3.902344 C 24.785156 -4.175781 24.695312 -4.4375 24.339844 -4.683594 L 20.195312 -7.449219 C 19.871094 -7.679688 19.597656 -7.617188 19.351562 -7.292969 C 18.183594 -5.882812 16.386719 -5.039062 14.160156 -5.039062 C 10.257812 -5.039062 7.679688 -7.617188 7.679688 -11.792969 C 7.679688 -15.972656 10.257812 -18.550781 14.160156 -18.550781 C 16.386719 -18.550781 18.183594 -17.707031 19.351562 -16.292969 C 19.597656 -15.972656 19.871094 -15.910156 20.195312 -16.140625 L 24.339844 -18.90625 C 24.695312 -19.152344 24.757812 -19.441406 24.496094 -19.75 C 22.238281 -22.542969 18.613281 -24.21875 14.160156 -24.21875 C 6.480469 -24.21875 1.382812 -19.382812 1.382812 -11.792969 C 1.382812 -4.207031 6.480469 0.628906 14.160156 0.628906 Z M 14.160156 0.628906 "/></g></g></g></svg>