<?xml version="1.0" encoding="UTF-8" standalone="no"?>
<svg
   height="48.021454"
   viewBox="0 0 48.000099 48.021454"
   width="48.000099"
   version="1.1"
   id="svg146"
   sodipodi:docname="service.svg"
   inkscape:version="1.2.1 (9c6d41e4, 2022-07-14)"
   xmlns:inkscape="http://www.inkscape.org/namespaces/inkscape"
   xmlns:sodipodi="http://sodipodi.sourceforge.net/DTD/sodipodi-0.dtd"
   xmlns="http://www.w3.org/2000/svg"
   xmlns:svg="http://www.w3.org/2000/svg">
  <defs
     id="defs150" />
  <sodipodi:namedview
     id="namedview148"
     pagecolor="#ffffff"
     bordercolor="#666666"
     borderopacity="1.0"
     inkscape:showpageshadow="2"
     inkscape:pageopacity="0.0"
     inkscape:pagecheckerboard="0"
     inkscape:deskcolor="#d1d1d1"
     showgrid="false"
     inkscape:zoom="0.118"
     inkscape:cx="563.55932"
     inkscape:cy="559.32203"
     inkscape:window-width="1309"
     inkscape:window-height="456"
     inkscape:window-x="0"
     inkscape:window-y="25"
     inkscape:window-maximized="0"
     inkscape:current-layer="svg146" />
  <path
     d="m 15.62524,9e-5 c -0.002,1.50234 4.2e-4,3.00472 0.004,4.50705 C 14.348,4.86962 13.17722,5.37546 12.07158,5.99511 L 8.84011,2.8025 2.79774,8.87985 6.02897,12.0719 C 5.40479,13.19065 4.91739,14.37954 4.57724,15.61442 L 0,15.62242 v 8.5592 l 4.62506,-0.0167 c 0.42295,1.67694 1.34342,3.18449 2.26019,4.53251 v -7.38307 l -4.04286,0.0145 v -2.86927 l 4.02272,-0.007 0.22579,-1.14393 C 7.42019,15.64039 8.07233,14.05009 9.00927,12.62713 L 9.65023,11.6537 6.82395,8.8616 8.85803,6.8157 11.68947,9.61312 12.65306,8.97009 C 14.12557,7.99858 15.73615,7.34735 17.3422,7.00818 l 1.13529,-0.2357 -0.0102,-3.93001 h 2.92225 l -0.0226,3.90955 h 1.15432 6.51338 C 28.31537,5.89347 25.33465,4.77625 24.22257,4.46494 L 24.24837,8e-5 C 21.0649,0 18.56906,2.6e-4 15.62493,0 Z m 8.08693,8.18844 0.0116,4.50689 c -1.28128,0.36247 -2.45206,0.86825 -3.55774,1.48797 l -3.23155,-3.19261 -6.04237,6.07735 3.23131,3.19205 c -0.6242,1.11881 -1.11166,2.30766 -1.4518,3.54259 l -4.57716,0.008 v 8.5592 l 4.62498,-0.0166 c 0.36405,1.2692 0.86872,2.4282 1.48718,3.52237 l -3.30911,3.29618 6.1097,6.0047 3.29721,-3.28191 c 1.12942,0.62714 2.32997,1.11405 3.57464,1.45292 l 0.002,4.65797 c 2.9395,0.0257 6.06919,0.0125 8.5814,0.0122 v -4.7131 c 1.28224,-0.36155 2.45668,-0.87103 3.56258,-1.49043 l 3.29452,3.24829 6.04634,-6.06974 -3.30142,-3.25344 c 0.62561,-1.12175 1.11309,-2.31263 1.45363,-3.54885 l 4.48199,-0.0277 v -8.55095 l -4.53227,0.0276 C 43.1035,22.36905 42.60612,21.21789 41.97946,20.11647 l 3.13154,-3.13955 -6.10629,-6.01493 -3.1275,3.1382 c -1.12478,-0.62203 -2.32045,-1.10781 -3.56028,-1.44712 l 0.0257,-4.46486 z m 2.84968,2.84238 h 2.92225 l -0.0225,3.90963 1.15425,0.2265 c 1.67589,0.32887 3.28217,0.9802 4.71087,1.9114 l 0.9674,0.63057 2.72937,-2.73865 2.05534,2.02464 -2.73318,2.74016 0.65762,0.97073 c 0.96497,1.45664 1.60506,3.0312 1.96643,4.65258 l 0.23776,1.13743 3.95016,-0.024 v 2.86634 l -3.92811,0.0242 -0.22563,1.13743 c -0.33133,1.67013 -0.98205,3.26038 -1.92059,4.68581 l -0.64168,0.97477 2.89346,2.85143 -2.03377,2.04161 -2.89377,-2.85317 -0.96193,0.63907 c -1.47297,0.96261 -3.07077,1.6292 -4.6828,1.95762 l -1.14282,0.22825 v 4.15049 c -0.78129,0.002 -1.63359,6.7e-4 -2.89798,-10e-4 l -0.002,-4.1194 -1.14798,-0.2242 c -1.67823,-0.32772 -3.28187,-0.97606 -4.7081,-1.91116 l -0.96454,-0.6324 -2.90496,2.89156 -2.05565,-2.02044 2.909,-2.89766 -0.6638,-0.9747 c -0.96588,-1.45344 -1.60485,-3.02967 -1.96683,-4.64917 l -0.23753,-1.13394 -4.04287,0.0144 v -2.86919 l 4.02273,-0.007 0.22578,-1.14378 c 0.3293,-1.66827 0.98145,-3.25867 1.91838,-4.68161 l 0.64096,-0.9735 -2.82636,-2.79211 2.03408,-2.04589 2.83152,2.79741 0.96359,-0.64294 c 1.47438,-0.96518 3.03895,-1.6056 4.68914,-1.96184 l 1.13537,-0.2357 z m 1.50914,10.44387 c -3.51834,0 -6.401,2.88273 -6.401,6.40108 0,3.51834 2.88266,6.40092 6.401,6.40092 3.51835,0 6.401,-2.88258 6.401,-6.40092 0,-3.51835 -2.88265,-6.40108 -6.401,-6.40108 z m 0,2.84238 c 1.98221,0 3.55862,1.57649 3.55862,3.5587 0,1.9822 -1.57641,3.55853 -3.55862,3.55853 -1.9822,0 -3.55853,-1.57633 -3.55853,-3.55853 0,-1.98221 1.57633,-3.5587 3.55853,-3.5587 z"
     id="path144"
     style="stroke-width:0.0406055" />
</svg>
